<svg xmlns="http://www.w3.org/2000/svg" xmlns:xlink="http://www.w3.org/1999/xlink" width="400" zoomAndPan="magnify" viewBox="0 0 300 127.500001" height="170" preserveAspectRatio="xMidYMid meet" version="1.0"><defs><g/></defs><g fill="#000000" fill-opacity="1"><g transform="translate(73.599949, 84.06524)"><g><path d="M 27.398438 0 C 30.785156 0 33.757812 -0.71875 36.222656 -2.15625 C 39.503906 -4 42.378906 -6.875 44.636719 -10.570312 C 46.585938 -13.75 48.226562 -17.648438 49.355469 -22.0625 L 49.355469 -22.164062 C 50.792969 -29.039062 51.613281 -35.8125 51.613281 -42.277344 C 51.613281 -46.996094 51.203125 -51.921875 50.382812 -57.257812 C 49.765625 -61.054688 48.84375 -64.644531 47.613281 -67.828125 C 46.074219 -71.625 44.125 -74.804688 41.761719 -77.265625 C 39.09375 -79.933594 35.605469 -81.472656 31.195312 -81.988281 C 30.269531 -82.089844 29.347656 -82.191406 28.421875 -82.191406 C 25.242188 -82.191406 22.371094 -81.679688 19.804688 -80.449219 C 16.519531 -79.113281 13.75 -76.753906 11.289062 -73.164062 L 11.183594 -73.164062 C 8.210938 -68.546875 6.257812 -63.210938 5.234375 -56.746094 C 4.414062 -52.433594 4.105469 -47.816406 4.105469 -42.996094 C 4.105469 -41.351562 4.207031 -39.710938 4.308594 -37.863281 L 4.308594 -37.554688 C 4.617188 -31.089844 5.542969 -25.34375 6.976562 -20.316406 C 8.925781 -13.132812 11.492188 -8.003906 14.878906 -4.617188 C 17.035156 -2.460938 19.804688 -1.027344 23.191406 -0.511719 C 24.523438 -0.207031 25.960938 0 27.398438 0 Z M 19.085938 -43.507812 C 19.085938 -44.839844 19.085938 -46.277344 19.1875 -47.714844 C 19.496094 -53.972656 20.316406 -59.105469 21.546875 -63.3125 C 22.984375 -67.3125 25.550781 -70.699219 28.320312 -72.34375 C 29.140625 -72.855469 30.066406 -73.058594 30.988281 -73.058594 C 31.605469 -73.058594 32.425781 -72.957031 33.246094 -72.648438 C 35.914062 -71.417969 37.964844 -68.648438 39.402344 -64.234375 C 40.738281 -60.234375 41.558594 -55 41.761719 -48.636719 C 41.867188 -46.996094 41.867188 -45.457031 41.867188 -43.816406 C 41.867188 -40.121094 41.761719 -36.222656 41.351562 -32.117188 C 40.941406 -27.910156 40.328125 -23.191406 39.503906 -20.113281 L 38.890625 -18.46875 C 37.863281 -15.800781 36.425781 -13.648438 34.582031 -11.902344 C 33.144531 -10.464844 31.707031 -9.75 30.167969 -9.75 C 30.066406 -9.75 29.960938 -9.75 29.859375 -9.851562 L 29.550781 -9.851562 C 27.808594 -10.054688 26.0625 -11.699219 24.421875 -14.777344 C 22.371094 -18.675781 20.933594 -23.601562 20.007812 -29.65625 C 19.394531 -34.273438 19.085938 -38.890625 19.085938 -43.507812 Z M 19.085938 -43.507812 "/></g></g></g><g fill="#000000" fill-opacity="1"><g transform="translate(129.317394, 84.06524)"><g><path d="M 10.875 0 L 10.980469 0 C 15.699219 0 18.46875 -2.460938 19.085938 -7.082031 C 19.1875 -8.210938 19.292969 -9.335938 19.292969 -10.671875 C 19.292969 -11.289062 19.292969 -12.003906 19.1875 -12.722656 C 18.878906 -20.726562 18.675781 -36.734375 18.675781 -46.792969 L 18.675781 -50.691406 C 21.546875 -43.097656 25.242188 -33.453125 25.859375 -32.117188 C 27.5 -28.527344 29.140625 -24.320312 30.785156 -19.597656 L 30.785156 -19.496094 L 31.089844 -18.878906 C 31.089844 -18.777344 31.089844 -18.777344 31.195312 -18.675781 L 35.8125 -4.824219 C 37.042969 -1.027344 38.273438 0.71875 43.199219 0 L 45.148438 0 C 47.714844 0 48.332031 -4.71875 48.636719 -5.847656 C 49.253906 -8.515625 49.046875 -11.492188 49.152344 -14.671875 C 49.355469 -19.597656 49.460938 -25.039062 49.460938 -30.988281 L 49.460938 -36.53125 C 49.460938 -42.890625 49.046875 -50.175781 48.636719 -57.15625 C 48.636719 -58.898438 48.535156 -60.746094 48.433594 -62.492188 C 48.332031 -64.132812 48.226562 -69.058594 48.226562 -70.800781 L 48.226562 -73.46875 C 48.226562 -74.394531 48.226562 -75.316406 48.125 -76.34375 C 48.023438 -77.984375 47.714844 -79.320312 47.097656 -80.242188 C 46.277344 -81.578125 45.148438 -82.191406 43.609375 -82.191406 C 38.683594 -82.191406 37.453125 -79.628906 37.351562 -77.371094 C 37.25 -76.855469 37.25 -76.34375 37.25 -75.726562 C 37.25 -75.316406 37.351562 -74.804688 37.351562 -74.1875 L 37.351562 -73.984375 C 37.351562 -67.519531 38.992188 -57.976562 38.992188 -51.714844 L 38.992188 -51.613281 C 38.992188 -46.585938 38.890625 -41.867188 38.890625 -31.398438 L 38.890625 -30.988281 C 38.890625 -29.859375 38.992188 -27.398438 38.890625 -26.269531 C 33.042969 -41.25 25.753906 -61.773438 24.523438 -64.644531 L 23.804688 -66.289062 C 23.5 -67.109375 23.191406 -68.132812 22.882812 -69.160156 L 22.574219 -69.777344 C 20.523438 -75.316406 18.164062 -81.578125 11.59375 -81.78125 C 7.695312 -81.78125 5.128906 -79.421875 4.414062 -75.011719 C 4.207031 -73.574219 4.105469 -72.136719 4.105469 -70.90625 L 4.105469 -62.386719 L 4.207031 -50.074219 C 4.207031 -45.253906 4.414062 -32.527344 4.414062 -27.089844 C 4.414062 -22.984375 4.414062 -18.777344 4.308594 -14.777344 C 4.207031 -14.160156 4.207031 -13.441406 4.207031 -12.828125 C 4.105469 -12.003906 4.105469 -11.082031 4.105469 -10.160156 C 4.105469 -9.335938 4.105469 -8.414062 4.207031 -7.386719 C 4.617188 -2.875 6.875 0 10.875 0 Z M 10.875 0 "/></g></g></g><g fill="#000000" fill-opacity="1"><g transform="translate(182.880017, 84.06524)"><g><path d="M 25.960938 0 C 28.421875 0 30.679688 -0.101562 32.527344 -0.207031 C 35.605469 -0.511719 37.554688 -1.4375 38.683594 -2.976562 L 38.683594 -3.078125 C 39.09375 -4 39.402344 -4.824219 39.402344 -5.542969 C 39.402344 -6.363281 39.09375 -7.183594 38.683594 -7.902344 C 38.683594 -8.003906 38.582031 -8.003906 38.582031 -8.003906 C 37.761719 -9.542969 36.324219 -10.363281 34.273438 -10.363281 L 34.171875 -10.363281 L 31.296875 -10.160156 C 30.167969 -10.054688 29.140625 -10.054688 27.910156 -10.054688 C 26.78125 -10.054688 25.753906 -10.054688 24.628906 -10.160156 C 21.546875 -10.875 19.597656 -13.648438 18.984375 -18.164062 C 18.984375 -18.574219 18.878906 -18.777344 18.878906 -19.085938 C 18.675781 -20.933594 17.957031 -29.550781 17.957031 -30.476562 L 18.058594 -33.347656 C 18.058594 -35.195312 20.316406 -35.296875 22.164062 -35.296875 L 26.988281 -35.296875 C 27.808594 -35.195312 28.527344 -35.195312 29.140625 -35.195312 L 29.960938 -35.195312 C 33.042969 -35.195312 34.066406 -37.25 34.582031 -38.683594 C 34.785156 -39.199219 34.785156 -39.710938 34.785156 -40.121094 C 34.785156 -41.558594 34.375 -42.6875 33.246094 -43.816406 L 33.144531 -43.917969 C 32.324219 -44.839844 30.785156 -44.945312 29.550781 -44.945312 L 25.242188 -44.945312 C 24.832031 -44.945312 24.523438 -44.839844 24.214844 -44.839844 C 23.394531 -44.839844 22.78125 -44.839844 22.164062 -44.738281 L 20.933594 -44.738281 C 20.007812 -44.738281 19.496094 -44.839844 19.085938 -45.046875 L 18.984375 -45.148438 C 18.675781 -45.355469 18.265625 -45.96875 18.265625 -48.226562 C 18.367188 -48.742188 18.367188 -49.152344 18.367188 -49.664062 C 18.574219 -50.28125 18.574219 -50.792969 18.574219 -51.203125 L 18.574219 -51.304688 C 18.675781 -56.027344 19.085938 -60.746094 19.1875 -65.570312 L 19.1875 -66.59375 C 19.292969 -69.160156 20.007812 -70.90625 21.035156 -71.417969 C 22.0625 -71.828125 23.191406 -72.035156 24.628906 -72.035156 C 25.140625 -72.035156 25.652344 -71.929688 26.0625 -71.929688 L 30.167969 -71.929688 C 33.144531 -71.929688 34.886719 -72.753906 36.015625 -73.984375 C 36.941406 -74.90625 37.351562 -75.832031 37.351562 -76.855469 C 37.351562 -77.371094 37.351562 -77.679688 37.144531 -78.191406 C 36.015625 -82.808594 26.78125 -82.089844 22.0625 -82.089844 L 14.570312 -82.089844 C 13.03125 -82.089844 11.800781 -81.988281 10.773438 -81.78125 C 8.824219 -81.472656 7.386719 -80.550781 6.363281 -78.703125 C 5.542969 -77.164062 5.027344 -74.804688 4.925781 -71.316406 L 4.925781 -69.878906 L 4.414062 -61.363281 C 4.105469 -54.078125 4.515625 -46.277344 4.414062 -38.582031 L 4.308594 -37.761719 C 4.207031 -30.269531 3.695312 -23.085938 4.71875 -16.625 C 5.027344 -13.648438 5.644531 -10.261719 6.976562 -7.386719 C 8.515625 -4.515625 10.570312 -2.460938 13.542969 -1.332031 L 13.648438 -1.332031 C 16.210938 -0.511719 19.1875 -0.101562 22.984375 -0.101562 C 24.011719 0 25.039062 0 25.960938 0 Z M 25.960938 0 "/></g></g></g><g fill="#000000" fill-opacity="1"><g transform="translate(84.723762, 120.570567)"><g><path d="M 1.6875 -8.59375 L 1.6875 -11.328125 L 6.09375 -11.328125 L 6.09375 -8.25 C 6.09375 -6.550781 6.238281 -5.351562 6.53125 -4.65625 C 6.820312 -3.96875 7.363281 -3.625 8.15625 -3.625 C 8.957031 -3.625 9.488281 -3.90625 9.75 -4.46875 C 10.007812 -5.039062 10.140625 -5.96875 10.140625 -7.25 C 10.140625 -8.539062 9.90625 -9.664062 9.4375 -10.625 C 8.976562 -11.582031 8.25 -12.582031 7.25 -13.625 L 4.984375 -15.953125 C 3.929688 -17.046875 3.113281 -18.179688 2.53125 -19.359375 C 1.945312 -20.546875 1.65625 -21.914062 1.65625 -23.46875 C 1.65625 -25.988281 2.140625 -27.863281 3.109375 -29.09375 C 4.078125 -30.320312 5.75 -30.9375 8.125 -30.9375 C 10.5 -30.9375 12.101562 -30.222656 12.9375 -28.796875 C 13.78125 -27.367188 14.203125 -25.28125 14.203125 -22.53125 L 14.203125 -20.640625 L 9.921875 -20.640625 L 9.921875 -22.828125 C 9.921875 -24.304688 9.789062 -25.367188 9.53125 -26.015625 C 9.28125 -26.660156 8.789062 -26.984375 8.0625 -26.984375 C 7.34375 -26.984375 6.820312 -26.738281 6.5 -26.25 C 6.1875 -25.757812 6.03125 -25.023438 6.03125 -24.046875 C 6.03125 -23.078125 6.191406 -22.300781 6.515625 -21.71875 C 6.835938 -21.144531 7.421875 -20.410156 8.265625 -19.515625 L 10.78125 -16.78125 C 12.050781 -15.414062 13.003906 -14.03125 13.640625 -12.625 C 14.285156 -11.226562 14.609375 -9.703125 14.609375 -8.046875 C 14.609375 -5.179688 14.125 -3.066406 13.15625 -1.703125 C 12.195312 -0.335938 10.515625 0.34375 8.109375 0.34375 C 5.710938 0.34375 4.039062 -0.414062 3.09375 -1.9375 C 2.15625 -3.457031 1.6875 -5.675781 1.6875 -8.59375 Z M 1.6875 -8.59375 "/></g></g></g><g fill="#000000" fill-opacity="1"><g transform="translate(113.825973, 120.570567)"><g><path d="M 3.859375 0 L 3.859375 -26.546875 L 0.28125 -26.546875 L 0.28125 -30.578125 L 11.9375 -30.578125 L 11.9375 -26.546875 L 8.5 -26.546875 L 8.5 0 Z M 3.859375 0 "/></g></g></g><g fill="#000000" fill-opacity="1"><g transform="translate(139.419216, 120.570567)"><g><path d="M 6.59375 -8.5 C 6.59375 -6.695312 6.726562 -5.441406 7 -4.734375 C 7.28125 -4.035156 7.84375 -3.6875 8.6875 -3.6875 C 9.53125 -3.6875 10.082031 -4.046875 10.34375 -4.765625 C 10.613281 -5.492188 10.75 -6.738281 10.75 -8.5 L 10.75 -22.734375 C 10.75 -24.179688 10.613281 -25.238281 10.34375 -25.90625 C 10.070312 -26.570312 9.539062 -26.90625 8.75 -26.90625 C 7.957031 -26.90625 7.398438 -26.570312 7.078125 -25.90625 C 6.753906 -25.238281 6.59375 -24.1875 6.59375 -22.75 Z M 15.421875 -8.546875 C 15.421875 -5.554688 14.890625 -3.328125 13.828125 -1.859375 C 12.765625 -0.390625 11.054688 0.34375 8.703125 0.34375 C 6.359375 0.34375 4.640625 -0.390625 3.546875 -1.859375 C 2.453125 -3.335938 1.90625 -5.566406 1.90625 -8.546875 L 1.90625 -22.53125 C 1.90625 -28.132812 4.191406 -30.9375 8.765625 -30.9375 C 11.128906 -30.9375 12.828125 -30.222656 13.859375 -28.796875 C 14.898438 -27.378906 15.421875 -25.289062 15.421875 -22.53125 Z M 15.421875 -8.546875 "/></g></g></g><g fill="#000000" fill-opacity="1"><g transform="translate(170.154311, 120.570567)"><g><path d="M 8.4375 -14.359375 L 6.953125 -14.4375 L 6.953125 0 L 2.296875 0 L 2.296875 -30.578125 L 9.984375 -30.578125 C 11.585938 -30.578125 12.78125 -30.253906 13.5625 -29.609375 C 14.351562 -28.960938 14.875 -28.0625 15.125 -26.90625 C 15.375 -25.757812 15.5 -24.253906 15.5 -22.390625 C 15.5 -20.535156 15.300781 -19.117188 14.90625 -18.140625 C 14.507812 -17.171875 13.78125 -16.519531 12.71875 -16.1875 C 13.769531 -16 14.503906 -15.285156 14.921875 -14.046875 C 15.335938 -12.804688 15.546875 -10.226562 15.546875 -6.3125 C 15.546875 -2.394531 15.601562 -0.289062 15.71875 0 L 11.0625 0 C 10.945312 -0.226562 10.890625 -3.882812 10.890625 -10.96875 C 10.890625 -12.320312 10.726562 -13.21875 10.40625 -13.65625 C 10.082031 -14.101562 9.425781 -14.335938 8.4375 -14.359375 Z M 6.96875 -18.046875 L 8.828125 -18.046875 C 9.421875 -18.046875 9.859375 -18.175781 10.140625 -18.4375 C 10.421875 -18.707031 10.613281 -19.164062 10.71875 -19.8125 C 10.832031 -20.46875 10.890625 -21.460938 10.890625 -22.796875 L 10.890625 -22.984375 C 10.890625 -24.640625 10.75 -25.722656 10.46875 -26.234375 C 10.195312 -26.742188 9.554688 -27 8.546875 -27 L 6.96875 -27 Z M 6.96875 -18.046875 "/></g></g></g><g fill="#000000" fill-opacity="1"><g transform="translate(201.080489, 120.570567)"><g><path d="M 2.296875 0 L 2.296875 -30.578125 L 12.546875 -30.578125 L 12.546875 -26.5625 L 6.953125 -26.5625 L 6.953125 -17.671875 L 12.265625 -17.671875 L 12.265625 -13.734375 L 6.953125 -13.734375 L 6.953125 -4.015625 L 12.75 -4.015625 L 12.75 0 Z M 2.296875 0 "/></g></g></g></svg>