<svg width="123" height="57" viewBox="0 0 123 57" fill="current" xmlns="http://www.w3.org/2000/svg">
<path d="M22.12 29.08C22.4667 29.08 22.7333 29.24 22.92 29.56C23.1333 29.88 23.24 30.32 23.24 30.88C23.24 31.9467 22.9867 32.7733 22.48 33.36C21.2533 34.7733 19.9867 35.9333 18.68 36.84C17.4 37.7467 15.9333 38.2 14.28 38.2C12.92 38.2 11.8933 37.8133 11.2 37.04C10.5067 36.24 10.16 35.0933 10.16 33.6C10.16 32.8533 10.3467 31.52 10.72 29.6C11.0667 27.92 11.24 26.76 11.24 26.12C11.24 25.6933 11.0933 25.48 10.8 25.48C10.4533 25.48 9.96 25.9333 9.32 26.84C8.68 27.72 8.04 28.8933 7.4 30.36C6.76 31.8267 6.24 33.3733 5.84 35C5.33333 37.1333 4.08 38.2 2.08 38.2C1.28 38.2 0.746667 37.92 0.48 37.36C0.24 36.7733 0.12 35.7333 0.12 34.24C0.12 33.3867 0.133333 32.7067 0.16 32.2L0.2 29C0.2 24.8933 0.613333 20.6133 1.44 16.16C2.29333 11.7067 3.53333 7.97333 5.16 4.96C6.81333 1.92 8.78667 0.399998 11.08 0.399998C12.3067 0.399998 13.2933 0.933331 14.04 2C14.8133 3.04 15.2 4.4 15.2 6.08C15.2 8.77333 14.4133 11.5733 12.84 14.48C11.2667 17.36 8.70667 20.7333 5.16 24.6C5.08 25.9867 5.04 27.4133 5.04 28.88C5.92 26.6133 6.89333 24.7733 7.96 23.36C9.05333 21.92 10.12 20.8933 11.16 20.28C12.2267 19.6667 13.2 19.36 14.08 19.36C15.8133 19.36 16.68 20.2267 16.68 21.96C16.68 23 16.3867 24.88 15.8 27.6C15.2933 29.92 15.04 31.4533 15.04 32.2C15.04 33.2667 15.4267 33.8 16.2 33.8C16.7333 33.8 17.36 33.48 18.08 32.84C18.8267 32.1733 19.8133 31.1067 21.04 29.64C21.36 29.2667 21.72 29.08 22.12 29.08ZM10.24 4.36C9.76 4.36 9.22667 5.05333 8.64 6.44C8.05333 7.8 7.48 9.65333 6.92 12C6.38667 14.32 5.94667 16.8533 5.6 19.6C7.25333 17.6533 8.61333 15.5333 9.68 13.24C10.7733 10.9467 11.32 8.86667 11.32 7C11.32 6.14667 11.2267 5.49333 11.04 5.04C10.8533 4.58667 10.5867 4.36 10.24 4.36ZM25.7181 38.2C24.0648 38.2 22.7448 37.6 21.7581 36.4C20.7715 35.2 20.2781 33.6267 20.2781 31.68C20.2781 29.5467 20.7715 27.5333 21.7581 25.64C22.7448 23.72 24.0515 22.1867 25.6781 21.04C27.3315 19.8667 29.0781 19.28 30.9181 19.28C31.5048 19.28 31.8915 19.4 32.0781 19.64C32.2915 19.8533 32.4648 20.2533 32.5981 20.84C33.1581 20.7333 33.7448 20.68 34.3581 20.68C35.6648 20.68 36.3181 21.1467 36.3181 22.08C36.3181 22.64 36.1181 23.9733 35.7181 26.08C35.1048 29.1467 34.7981 31.28 34.7981 32.48C34.7981 32.88 34.8915 33.2 35.0781 33.44C35.2915 33.68 35.5581 33.8 35.8781 33.8C36.3848 33.8 36.9981 33.48 37.7181 32.84C38.4381 32.1733 39.4115 31.1067 40.6381 29.64C40.9581 29.2667 41.3181 29.08 41.7181 29.08C42.0648 29.08 42.3315 29.24 42.5181 29.56C42.7315 29.88 42.8381 30.32 42.8381 30.88C42.8381 31.9467 42.5848 32.7733 42.0781 33.36C40.9848 34.72 39.8248 35.8667 38.5981 36.8C37.3715 37.7333 36.1848 38.2 35.0381 38.2C34.1581 38.2 33.3448 37.9067 32.5981 37.32C31.8781 36.7067 31.3315 35.88 30.9581 34.84C29.5715 37.08 27.8248 38.2 25.7181 38.2ZM27.1581 34.16C27.7448 34.16 28.3048 33.8133 28.8381 33.12C29.3715 32.4267 29.7581 31.5067 29.9981 30.36L31.4781 23C30.3581 23.0267 29.3181 23.4533 28.3581 24.28C27.4248 25.08 26.6781 26.1467 26.1181 27.48C25.5581 28.8133 25.2781 30.2267 25.2781 31.72C25.2781 32.5467 25.4381 33.16 25.7581 33.56C26.1048 33.96 26.5715 34.16 27.1581 34.16ZM43.2272 38.2C42.2139 38.2 41.4939 37.6667 41.0672 36.6C40.6672 35.5333 40.4672 33.8267 40.4672 31.48C40.4672 28.0133 40.9605 24.72 41.9472 21.6C42.1872 20.8267 42.5739 20.2667 43.1072 19.92C43.6672 19.5467 44.4405 19.36 45.4272 19.36C45.9605 19.36 46.3339 19.4267 46.5472 19.56C46.7605 19.6933 46.8672 19.9467 46.8672 20.32C46.8672 20.7467 46.6672 21.7067 46.2672 23.2C46.0005 24.2667 45.7872 25.2 45.6272 26C45.4672 26.8 45.3339 27.7867 45.2272 28.96C46.1072 26.6667 47.0939 24.8 48.1872 23.36C49.2805 21.92 50.3472 20.8933 51.3872 20.28C52.4539 19.6667 53.4272 19.36 54.3072 19.36C56.0405 19.36 56.9072 20.2267 56.9072 21.96C56.9072 23 56.6139 24.88 56.0272 27.6C55.5205 29.92 55.2672 31.4533 55.2672 32.2C55.2672 33.2667 55.6539 33.8 56.4272 33.8C56.9605 33.8 57.5872 33.48 58.3072 32.84C59.0539 32.1733 60.0405 31.1067 61.2672 29.64C61.5872 29.2667 61.9472 29.08 62.3472 29.08C62.6939 29.08 62.9605 29.24 63.1472 29.56C63.3605 29.88 63.4672 30.32 63.4672 30.88C63.4672 31.9467 63.2139 32.7733 62.7072 33.36C61.5605 34.7733 60.3205 35.9333 58.9872 36.84C57.6805 37.7467 56.1872 38.2 54.5072 38.2C53.1472 38.2 52.1205 37.8133 51.4272 37.04C50.7339 36.24 50.3872 35.0933 50.3872 33.6C50.3872 32.8533 50.5739 31.52 50.9472 29.6C51.2939 27.92 51.4672 26.76 51.4672 26.12C51.4672 25.6933 51.3205 25.48 51.0272 25.48C50.6805 25.48 50.1872 25.9333 49.5472 26.84C48.9339 27.72 48.2939 28.8933 47.6272 30.36C46.9872 31.8267 46.4672 33.3733 46.0672 35C45.7739 36.2533 45.4272 37.1067 45.0272 37.56C44.6539 37.9867 44.0539 38.2 43.2272 38.2ZM83.7509 29.08C84.0976 29.08 84.3643 29.24 84.5509 29.56C84.7643 29.88 84.8709 30.32 84.8709 30.88C84.8709 31.9467 84.6176 32.7733 84.1109 33.36C83.0176 34.6933 81.8176 35.84 80.5109 36.8C79.2043 37.7333 77.9109 38.2 76.6309 38.2C74.6043 38.2 73.0576 37.0133 71.9909 34.64C70.8709 36.0533 69.8843 37 69.0309 37.48C68.2043 37.96 67.2309 38.2 66.1109 38.2C64.4843 38.2 63.1376 37.6 62.0709 36.4C61.0309 35.1733 60.5109 33.5867 60.5109 31.64C60.5109 29.5067 60.9643 27.5333 61.8709 25.72C62.7776 23.88 64.0176 22.3867 65.5909 21.24C67.1909 20.0667 68.9776 19.3733 70.9509 19.16C71.4576 13.9867 72.4176 9.57333 73.8309 5.92C75.2709 2.24 77.1509 0.399998 79.4709 0.399998C80.6176 0.399998 81.5643 0.919998 82.3109 1.96C83.0843 3 83.4709 4.57333 83.4709 6.68C83.4709 9.66667 82.7376 13.16 81.2709 17.16C79.8043 21.16 77.8443 25.2667 75.3909 29.48C75.4976 31.0267 75.7243 32.1333 76.0709 32.8C76.4443 33.4667 76.9109 33.8 77.4709 33.8C78.1909 33.8 78.9243 33.48 79.6709 32.84C80.4176 32.2 81.4176 31.1333 82.6709 29.64C82.9909 29.2667 83.3509 29.08 83.7509 29.08ZM79.0309 4.32C78.5243 4.32 78.0176 5.22666 77.5109 7.04C77.0043 8.82667 76.5643 11.1733 76.1909 14.08C75.8443 16.9867 75.5909 20.0267 75.4309 23.2C78.4176 16.6933 79.9109 11.4667 79.9109 7.52C79.9109 6.50667 79.8176 5.72 79.6309 5.16C79.4709 4.6 79.2709 4.32 79.0309 4.32ZM67.5109 34.16C68.0176 34.16 68.5243 33.96 69.0309 33.56C69.5376 33.1333 70.1776 32.36 70.9509 31.24C70.6843 29.8 70.5509 28.1867 70.5509 26.4C70.5509 25.76 70.5776 24.72 70.6309 23.28C69.1643 23.7333 67.9376 24.72 66.9509 26.24C65.9909 27.7333 65.5109 29.4 65.5109 31.24C65.5109 33.1867 66.1776 34.16 67.5109 34.16ZM87.6569 16.72C86.5369 16.72 85.6969 16.4667 85.1369 15.96C84.5769 15.4267 84.2969 14.6933 84.2969 13.76C84.2969 12.8267 84.6569 12.0533 85.3769 11.44C86.1235 10.8 87.0435 10.48 88.1369 10.48C89.1235 10.48 89.9235 10.72 90.5369 11.2C91.1502 11.68 91.4569 12.36 91.4569 13.24C91.4569 14.3067 91.1102 15.16 90.4169 15.8C89.7235 16.4133 88.8035 16.72 87.6569 16.72ZM87.3369 38.2C85.6035 38.2 84.3369 37.5867 83.5369 36.36C82.7635 35.1333 82.3769 33.5067 82.3769 31.48C82.3769 30.28 82.5235 28.7467 82.8169 26.88C83.1369 24.9867 83.5369 23.2267 84.0169 21.6C84.2569 20.7467 84.5769 20.16 84.9769 19.84C85.3769 19.52 86.0169 19.36 86.8969 19.36C88.2569 19.36 88.9369 19.8133 88.9369 20.72C88.9369 21.3867 88.6835 22.9333 88.1769 25.36C87.5369 28.2933 87.2169 30.28 87.2169 31.32C87.2169 32.12 87.3235 32.7333 87.5369 33.16C87.7502 33.5867 88.1102 33.8 88.6169 33.8C89.0969 33.8 89.6969 33.4667 90.4169 32.8C91.1369 32.1333 92.0969 31.08 93.2969 29.64C93.6169 29.2667 93.9769 29.08 94.3769 29.08C94.7235 29.08 94.9902 29.24 95.1769 29.56C95.3902 29.88 95.4969 30.32 95.4969 30.88C95.4969 31.9467 95.2435 32.7733 94.7369 33.36C92.0969 36.5867 89.6302 38.2 87.3369 38.2ZM108.221 29.08C108.567 29.08 108.834 29.24 109.021 29.56C109.234 29.88 109.341 30.32 109.341 30.88C109.341 31.9467 109.087 32.7733 108.581 33.36C107.434 34.7733 106.181 35.9333 104.821 36.84C103.487 37.7467 101.967 38.2 100.261 38.2C97.914 38.2 96.1673 37.1333 95.0206 35C93.9006 32.8667 93.3406 30.1067 93.3406 26.72C93.3406 23.4667 93.754 19.76 94.5806 15.6C95.434 11.44 96.674 7.86667 98.3006 4.88C99.954 1.89333 101.914 0.399998 104.181 0.399998C105.461 0.399998 106.461 0.999998 107.181 2.2C107.927 3.37333 108.301 5.06667 108.301 7.28C108.301 10.4533 107.421 14.1333 105.661 18.32C103.901 22.5067 101.514 26.6533 98.5006 30.76C98.6873 31.8533 98.994 32.64 99.4206 33.12C99.8473 33.5733 100.407 33.8 101.101 33.8C102.194 33.8 103.154 33.4933 103.981 32.88C104.807 32.24 105.861 31.16 107.141 29.64C107.461 29.2667 107.821 29.08 108.221 29.08ZM103.301 4.36C102.687 4.36 101.994 5.46667 101.221 7.68C100.447 9.89333 99.7673 12.64 99.1806 15.92C98.594 19.2 98.274 22.3467 98.2206 25.36C100.114 22.24 101.621 19.12 102.741 16C103.861 12.8533 104.421 9.98666 104.421 7.4C104.421 5.37333 104.047 4.36 103.301 4.36ZM120.908 19.36C121.521 19.36 121.948 19.44 122.188 19.6C122.428 19.76 122.548 20.0267 122.548 20.4C122.548 21.04 122.201 23.32 121.508 27.24C120.894 31 120.534 33.2267 120.428 33.92C119.441 40.7733 118.081 46.2 116.348 50.2C114.614 54.2 112.308 56.2 109.428 56.2C108.068 56.2 106.961 55.7733 106.108 54.92C105.254 54.0933 104.828 53 104.828 51.64C104.828 50.3867 105.108 49.1067 105.668 47.8C106.254 46.4933 107.321 44.9867 108.868 43.28C110.441 41.6 112.654 39.6667 115.508 37.48L115.628 36.56C115.814 35.5733 116.028 34.16 116.268 32.32C115.734 34.24 114.988 35.7067 114.028 36.72C113.068 37.7067 112.054 38.2 110.988 38.2C109.788 38.2 108.801 37.6533 108.028 36.56C107.281 35.44 106.908 34.0533 106.908 32.4C106.908 30.4 107.041 28.5733 107.308 26.92C107.574 25.24 108.014 23.4667 108.628 21.6C108.894 20.8 109.268 20.2267 109.748 19.88C110.228 19.5333 110.988 19.36 112.028 19.36C112.614 19.36 113.014 19.4533 113.228 19.64C113.468 19.8267 113.588 20.1067 113.588 20.48C113.588 20.6933 113.441 21.4133 113.148 22.64C112.881 23.6267 112.668 24.52 112.508 25.32C112.294 26.4133 112.108 27.4667 111.948 28.48C111.788 29.4667 111.708 30.28 111.708 30.92C111.708 31.9333 111.988 32.44 112.548 32.44C112.948 32.44 113.441 32.04 114.028 31.24C114.641 30.44 115.281 29.2267 115.948 27.6C116.641 25.9733 117.308 23.9733 117.948 21.6C118.161 20.8 118.481 20.2267 118.908 19.88C119.361 19.5333 120.028 19.36 120.908 19.36ZM109.868 52.32C110.534 52.32 111.281 51.5467 112.108 50C112.934 48.4533 113.761 45.88 114.588 42.28C112.534 44.0133 111.041 45.5867 110.108 47C109.201 48.44 108.748 49.6933 108.748 50.76C108.748 51.2133 108.828 51.5867 108.988 51.88C109.174 52.1733 109.468 52.32 109.868 52.32Z" fill="#070B0D"/>
</svg>
