<svg width="217" height="34" viewBox="0 0 217 34" fill="none" xmlns="http://www.w3.org/2000/svg">
<path d="M0.5 2.5L0.5 29.5L27.5 29.5L27.5 2.5L0.5 2.5Z" fill="black" stroke="black"/>
<path d="M0.5 16.5L8.5 12L18 16.5L27.5 13V2.5H0.5V16.5Z" fill="white" stroke="black"/>
<path d="M27.5 18L18 22L9 17.5L6 19L0.5 22V29.5H8.5H27.5V18Z" fill="white" stroke="black"/>
<path d="M50.4489 15.9631H45.0369C45.0085 15.6293 44.8913 15.3416 44.6854 15.1001C44.4794 14.8587 44.2131 14.674 43.8864 14.5462C43.5668 14.4112 43.2116 14.3438 42.821 14.3438C42.3168 14.3438 41.8835 14.4361 41.5213 14.6207C41.1591 14.8054 40.9815 15.0682 40.9886 15.4091C40.9815 15.6506 41.0845 15.8743 41.2976 16.0803C41.5178 16.2862 41.9403 16.446 42.5653 16.5597L45.8892 17.1562C47.5653 17.4616 48.8118 17.9766 49.6286 18.701C50.4524 19.4183 50.8679 20.3807 50.875 21.5881C50.8679 22.7528 50.5199 23.7649 49.831 24.6243C49.1491 25.4766 48.2152 26.1371 47.0291 26.6058C45.8501 27.0675 44.5043 27.2983 42.9915 27.2983C40.4915 27.2983 38.5348 26.7869 37.1214 25.7642C35.7152 24.7415 34.9304 23.392 34.767 21.7159H40.6051C40.6832 22.2344 40.9389 22.6357 41.3722 22.9197C41.8125 23.1967 42.3665 23.3352 43.0341 23.3352C43.5739 23.3352 44.0178 23.2429 44.3658 23.0582C44.7209 22.8736 44.902 22.6108 44.9091 22.2699C44.902 21.9574 44.7457 21.7088 44.4403 21.5241C44.142 21.3395 43.6733 21.1903 43.0341 21.0767L40.1364 20.5653C38.4673 20.2741 37.2173 19.7202 36.3864 18.9034C35.5554 18.0866 35.1435 17.0355 35.1506 15.75C35.1435 14.6136 35.4418 13.6513 36.0455 12.8629C36.6563 12.0675 37.5263 11.4638 38.6555 11.0518C39.7919 10.6328 41.1378 10.4233 42.6932 10.4233C45.0582 10.4233 46.9226 10.9134 48.2862 11.8935C49.657 12.8736 50.3778 14.2301 50.4489 15.9631ZM60.9691 27.2983C59.2219 27.2983 57.7163 26.9645 56.4521 26.2969C55.195 25.6222 54.2255 24.6562 53.5437 23.3991C52.869 22.1349 52.5316 20.6222 52.5316 18.8608C52.5316 17.1705 52.8725 15.6932 53.5543 14.429C54.2362 13.1648 55.1985 12.1811 56.4414 11.478C57.6843 10.7749 59.1509 10.4233 60.8413 10.4233C62.0771 10.4233 63.1957 10.6151 64.1971 10.9986C65.1985 11.3821 66.0543 11.9396 66.7646 12.6712C67.4748 13.3956 68.0217 14.2763 68.4052 15.3132C68.7887 16.3501 68.9805 17.5185 68.9805 18.8182V20.1818H54.364V16.9432H63.5685C63.5614 16.4744 63.4407 16.0625 63.2063 15.7074C62.979 15.3452 62.6701 15.0646 62.2795 14.8658C61.896 14.6598 61.4592 14.5568 60.9691 14.5568C60.4933 14.5568 60.0565 14.6598 59.6587 14.8658C59.261 15.0646 58.9414 15.3416 58.6999 15.6967C58.4656 16.0518 58.3413 16.4673 58.3271 16.9432V20.4375C58.3271 20.9631 58.4371 21.4318 58.6573 21.8438C58.8775 22.2557 59.1935 22.5788 59.6055 22.8132C60.0174 23.0476 60.5146 23.1648 61.0969 23.1648C61.5018 23.1648 61.8711 23.108 62.2049 22.9943C62.5458 22.8807 62.837 22.7173 63.0785 22.5043C63.32 22.2841 63.4975 22.0213 63.6112 21.7159H68.9805C68.7958 22.8523 68.359 23.8395 67.6701 24.6776C66.9812 25.5085 66.0685 26.1548 64.9322 26.6165C63.8029 27.071 62.4819 27.2983 60.9691 27.2983ZM79.2637 27.2983C77.4881 27.2983 75.9682 26.9467 74.704 26.2436C73.4398 25.5334 72.4703 24.5462 71.7956 23.282C71.1209 22.0107 70.7836 20.5369 70.7836 18.8608C70.7836 17.1847 71.1209 15.7145 71.7956 14.4503C72.4703 13.179 73.4398 12.1918 74.704 11.4886C75.9682 10.7784 77.4881 10.4233 79.2637 10.4233C80.8688 10.4233 82.2573 10.7145 83.4292 11.2969C84.6081 11.8722 85.5208 12.6889 86.1671 13.7472C86.8134 14.7983 87.1401 16.0341 87.1472 17.4545H81.6926C81.6145 16.5952 81.3659 15.9418 80.9469 15.4943C80.535 15.0398 80.0023 14.8125 79.3489 14.8125C78.8375 14.8125 78.3901 14.9616 78.0066 15.2599C77.623 15.5511 77.3248 15.995 77.1117 16.5916C76.8986 17.1811 76.7921 17.9233 76.7921 18.8182C76.7921 19.7131 76.8986 20.4588 77.1117 21.0554C77.3248 21.6449 77.623 22.0888 78.0066 22.3871C78.3901 22.6783 78.8375 22.8239 79.3489 22.8239C79.7821 22.8239 80.1657 22.7244 80.4995 22.5256C80.8333 22.3196 81.1032 22.0213 81.3091 21.6307C81.5222 21.233 81.65 20.75 81.6926 20.1818H87.1472C87.1259 21.6236 86.7956 22.8807 86.1564 23.9531C85.5172 25.0185 84.6117 25.8423 83.4398 26.4247C82.275 27.0071 80.883 27.2983 79.2637 27.2983ZM99.332 10.6364V14.8977H88.5508V10.6364H99.332ZM90.6388 6.71591H96.5195V21.7372C96.5195 21.9645 96.5586 22.1562 96.6367 22.3125C96.7148 22.4616 96.8356 22.5753 96.9989 22.6534C97.1623 22.7244 97.3718 22.7599 97.6275 22.7599C97.805 22.7599 98.011 22.7386 98.2454 22.696C98.4869 22.6534 98.6644 22.6179 98.7781 22.5895L99.6303 26.723C99.3675 26.8011 98.9911 26.897 98.5011 27.0107C98.0181 27.1243 97.4428 27.1989 96.7752 27.2344C95.4258 27.3054 94.293 27.1669 93.3768 26.8189C92.4606 26.4638 91.7717 25.9062 91.31 25.1463C90.8484 24.3864 90.6246 23.4347 90.6388 22.2912V6.71591ZM101.732 27V10.6364H107.612V27H101.732ZM104.672 8.93182C103.877 8.93182 103.195 8.66903 102.627 8.14347C102.058 7.6179 101.774 6.9858 101.774 6.24716C101.774 5.50852 102.058 4.87642 102.627 4.35085C103.195 3.82528 103.877 3.5625 104.672 3.5625C105.475 3.5625 106.156 3.82528 106.718 4.35085C107.286 4.87642 107.57 5.50852 107.57 6.24716C107.57 6.9858 107.286 7.6179 106.718 8.14347C106.156 8.66903 105.475 8.93182 104.672 8.93182ZM118.492 27.2983C116.717 27.2983 115.197 26.9467 113.933 26.2436C112.668 25.5334 111.699 24.5462 111.024 23.282C110.349 22.0107 110.012 20.5369 110.012 18.8608C110.012 17.1847 110.349 15.7145 111.024 14.4503C111.699 13.179 112.668 12.1918 113.933 11.4886C115.197 10.7784 116.717 10.4233 118.492 10.4233C120.268 10.4233 121.788 10.7784 123.052 11.4886C124.316 12.1918 125.286 13.179 125.96 14.4503C126.635 15.7145 126.972 17.1847 126.972 18.8608C126.972 20.5369 126.635 22.0107 125.96 23.282C125.286 24.5462 124.316 25.5334 123.052 26.2436C121.788 26.9467 120.268 27.2983 118.492 27.2983ZM118.535 22.9517C119.032 22.9517 119.462 22.7848 119.824 22.451C120.186 22.1172 120.467 21.6413 120.665 21.0234C120.864 20.4055 120.964 19.6705 120.964 18.8182C120.964 17.9588 120.864 17.2237 120.665 16.6129C120.467 15.995 120.186 15.5192 119.824 15.1854C119.462 14.8516 119.032 14.6847 118.535 14.6847C118.009 14.6847 117.558 14.8516 117.182 15.1854C116.805 15.5192 116.518 15.995 116.319 16.6129C116.12 17.2237 116.021 17.9588 116.021 18.8182C116.021 19.6705 116.12 20.4055 116.319 21.0234C116.518 21.6413 116.805 22.1172 117.182 22.451C117.558 22.7848 118.009 22.9517 118.535 22.9517ZM135.239 17.7955V27H129.359V10.6364H134.941V13.7472H135.112C135.467 12.7102 136.092 11.897 136.987 11.3075C137.888 10.718 138.94 10.4233 140.14 10.4233C141.298 10.4233 142.303 10.6896 143.155 11.2223C144.014 11.7479 144.678 12.4723 145.147 13.3956C145.623 14.3189 145.857 15.3736 145.85 16.5597V27H139.969V17.7955C139.977 16.9858 139.771 16.3501 139.352 15.8885C138.94 15.4268 138.364 15.196 137.626 15.196C137.143 15.196 136.72 15.3026 136.358 15.5156C136.003 15.7216 135.729 16.0199 135.538 16.4105C135.346 16.794 135.246 17.2557 135.239 17.7955ZM148.753 27V10.6364H154.634V27H148.753ZM151.694 8.93182C150.898 8.93182 150.216 8.66903 149.648 8.14347C149.08 7.6179 148.796 6.9858 148.796 6.24716C148.796 5.50852 149.08 4.87642 149.648 4.35085C150.216 3.82528 150.898 3.5625 151.694 3.5625C152.496 3.5625 153.178 3.82528 153.739 4.35085C154.307 4.87642 154.591 5.50852 154.591 6.24716C154.591 6.9858 154.307 7.6179 153.739 8.14347C153.178 8.66903 152.496 8.93182 151.694 8.93182ZM167.431 10.6364V14.8977H156.48V10.6364H167.431ZM158.568 27V10.1676C158.568 8.81818 158.809 7.69957 159.292 6.81179C159.775 5.92401 160.457 5.25994 161.338 4.8196C162.218 4.37926 163.255 4.15909 164.448 4.15909C165.194 4.15909 165.919 4.21591 166.622 4.32955C167.332 4.44318 167.857 4.54261 168.198 4.62784L167.346 8.84659C167.133 8.78267 166.884 8.73295 166.6 8.69744C166.316 8.65483 166.068 8.63352 165.855 8.63352C165.301 8.63352 164.928 8.75071 164.736 8.98508C164.544 9.21946 164.448 9.52841 164.448 9.91193V27H158.568ZM173.28 33.1364C172.605 33.1364 171.963 33.0831 171.352 32.9766C170.741 32.8771 170.205 32.7386 169.743 32.5611L171.021 28.3849C171.504 28.5554 171.945 28.6655 172.343 28.7152C172.747 28.7649 173.092 28.7365 173.376 28.63C173.667 28.5234 173.877 28.321 174.004 28.0227L174.132 27.7244L168.379 10.6364H174.516L177.158 21.9716H177.328L180.013 10.6364H186.192L180.226 28.3636C179.928 29.2656 179.494 30.0753 178.926 30.7926C178.365 31.517 177.627 32.0888 176.71 32.5078C175.794 32.9268 174.651 33.1364 173.28 33.1364Z" fill="white"/>
</svg>
