<svg xmlns="http://www.w3.org/2000/svg" xmlns:xlink="http://www.w3.org/1999/xlink" width="200" zoomAndPan="magnify" viewBox="0 0 150 112.499997" height="150" preserveAspectRatio="xMidYMid meet" version="1.0"><defs><g/><clipPath id="251e4322b5"><path d="M 0.332031 0 L 149.667969 0 L 149.667969 112.003906 L 0.332031 112.003906 Z M 0.332031 0 " clip-rule="nonzero"/></clipPath><clipPath id="15c7ad80e7"><path d="M 48.761719 3.035156 L 102.519531 3.035156 L 102.519531 65.011719 L 48.761719 65.011719 Z M 48.761719 3.035156 " clip-rule="nonzero"/></clipPath><clipPath id="bcba41e079"><path d="M 53 32 L 98 32 L 98 65.011719 L 53 65.011719 Z M 53 32 " clip-rule="nonzero"/></clipPath></defs><g clip-path="url(#251e4322b5)"><path fill="#ffffff" d="M 0.332031 0 L 149.667969 0 L 149.667969 119.46875 L 0.332031 119.46875 Z M 0.332031 0 " fill-opacity="1" fill-rule="nonzero"/><path fill="#ffffff" d="M 0.332031 0 L 149.667969 0 L 149.667969 112.003906 L 0.332031 112.003906 Z M 0.332031 0 " fill-opacity="1" fill-rule="nonzero"/><path fill="#ffffff" d="M 0.332031 0 L 149.667969 0 L 149.667969 112.003906 L 0.332031 112.003906 Z M 0.332031 0 " fill-opacity="1" fill-rule="nonzero"/></g><g clip-path="url(#15c7ad80e7)"><path fill="#231f20" d="M 89.316406 31.757812 L 87.199219 5.515625 C 87.199219 4.113281 86.339844 2.976562 85.28125 2.976562 L 66.824219 2.976562 C 65.765625 2.976562 64.90625 4.113281 64.90625 5.515625 L 62.414062 31.550781 C 54.324219 36.148438 48.847656 44.792969 48.847656 54.699219 C 48.847656 64.523438 54.238281 73.105469 62.226562 77.734375 L 64.90625 105.726562 C 64.90625 107.128906 65.761719 108.265625 66.824219 108.265625 L 85.28125 108.265625 C 86.339844 108.265625 87.199219 107.128906 87.199219 105.726562 L 89.46875 77.546875 C 97.28125 72.875 102.539062 64.394531 102.539062 54.699219 C 102.539062 44.933594 97.214844 36.40625 89.316406 31.757812 Z M 89.726562 74.359375 C 85.757812 77.164062 80.921875 78.828125 75.691406 78.828125 C 70.582031 78.828125 65.839844 77.246094 61.921875 74.554688 C 55.578125 70.195312 51.40625 62.925781 51.40625 54.699219 C 51.40625 46.390625 55.65625 39.046875 62.113281 34.707031 C 65.992188 32.09375 70.664062 30.570312 75.691406 30.570312 C 80.851562 30.570312 85.628906 32.1875 89.566406 34.921875 C 95.851562 39.289062 99.980469 46.519531 99.980469 54.699219 C 99.980469 62.808594 95.921875 69.980469 89.726562 74.359375 Z M 89.726562 74.359375 " fill-opacity="1" fill-rule="nonzero"/></g><g clip-path="url(#bcba41e079)"><path fill="#231f20" d="M 89.789062 37.660156 C 85.953125 34.519531 81.042969 32.632812 75.695312 32.632812 C 70.457031 32.632812 65.648438 34.453125 61.847656 37.476562 C 56.757812 41.523438 53.484375 47.734375 53.484375 54.699219 C 53.484375 61.582031 56.675781 67.734375 61.65625 71.785156 C 65.488281 74.894531 70.375 76.765625 75.695312 76.765625 C 81.117188 76.765625 86.089844 74.820312 89.949219 71.601562 C 94.808594 67.546875 97.90625 61.480469 97.90625 54.703125 C 97.90625 47.84375 94.742188 41.710938 89.789062 37.660156 Z M 90.0625 70.210938 C 86.273438 73.675781 81.238281 75.8125 75.695312 75.8125 C 70.246094 75.8125 65.289062 73.75 61.523438 70.390625 C 57.191406 66.519531 54.441406 60.929688 54.441406 54.699219 C 54.441406 48.375 57.269531 42.703125 61.71875 38.832031 C 65.457031 35.574219 70.339844 33.582031 75.695312 33.582031 C 81.160156 33.582031 86.132812 35.660156 89.902344 39.042969 C 94.214844 42.90625 96.945312 48.484375 96.945312 54.699219 C 96.945312 60.835938 94.28125 66.347656 90.0625 70.210938 Z M 90.0625 70.210938 " fill-opacity="1" fill-rule="nonzero"/></g><path fill="#000000" d="M 89.582031 46.050781 C 89.179688 45.472656 88.382812 45.328125 87.800781 45.726562 L 75.675781 54.046875 L 67.167969 48.289062 C 66.582031 47.894531 65.789062 48.046875 65.390625 48.625 C 64.992188 49.203125 65.144531 49.996094 65.726562 50.390625 L 73.460938 55.625 L 74.960938 56.636719 C 74.992188 56.660156 75.023438 56.664062 75.054688 56.683594 C 75.09375 56.703125 75.125 56.714844 75.164062 56.730469 C 75.328125 56.808594 75.503906 56.855469 75.679688 56.855469 L 75.691406 56.855469 C 75.804688 56.855469 75.914062 56.835938 76.019531 56.808594 C 76.054688 56.796875 76.085938 56.78125 76.121094 56.769531 C 76.203125 56.742188 76.277344 56.707031 76.351562 56.660156 C 76.367188 56.648438 76.390625 56.644531 76.40625 56.632812 L 77.878906 55.625 L 89.253906 47.820312 C 89.835938 47.417969 89.980469 46.628906 89.582031 46.050781 Z M 89.582031 46.050781 " fill-opacity="1" fill-rule="nonzero"/><g fill="#231f20" fill-opacity="1"><g transform="translate(18.976013, 91.102328)"><g><path d="M 1.734375 0 L 1.734375 -20.03125 L 15 -20.03125 L 15 -16.546875 L 5.984375 -16.546875 L 5.984375 -11.765625 L 14.125 -11.765625 L 14.125 -8.28125 L 5.984375 -8.28125 L 5.984375 0 Z M 1.734375 0 "/></g></g></g><g fill="#231f20" fill-opacity="1"><g transform="translate(35.085028, 91.102328)"><g><path d="M 5.1875 0 L 0.65625 0 L 7.578125 -20.03125 L 13.03125 -20.03125 L 19.9375 0 L 15.390625 0 L 13.90625 -4.5625 L 6.6875 -4.5625 Z M 7.75 -7.875 L 12.84375 -7.875 L 10.375 -15.453125 L 10.21875 -15.453125 Z M 7.75 -7.875 "/></g></g></g><g fill="#231f20" fill-opacity="1"><g transform="translate(55.683441, 91.102328)"><g><path d="M 14.140625 -20.03125 L 18.359375 -20.03125 L 18.359375 -6.78125 C 18.359375 -5.269531 18 -3.988281 17.28125 -2.9375 C 16.570312 -1.882812 15.59375 -1.082031 14.34375 -0.53125 C 13.09375 0.0078125 11.660156 0.28125 10.046875 0.28125 C 8.429688 0.28125 6.992188 0.0078125 5.734375 -0.53125 C 4.484375 -1.082031 3.503906 -1.882812 2.796875 -2.9375 C 2.085938 -3.988281 1.734375 -5.269531 1.734375 -6.78125 L 1.734375 -20.03125 L 5.984375 -20.03125 L 5.984375 -6.9375 C 5.984375 -5.863281 6.367188 -5.019531 7.140625 -4.40625 C 7.910156 -3.800781 8.878906 -3.5 10.046875 -3.5 C 11.234375 -3.5 12.210938 -3.800781 12.984375 -4.40625 C 13.753906 -5.019531 14.140625 -5.863281 14.140625 -6.9375 Z M 14.140625 -20.03125 "/></g></g></g><g fill="#231f20" fill-opacity="1"><g transform="translate(75.773244, 91.102328)"><g><path d="M 15.03125 -13.5625 C 14.757812 -14.5 14.265625 -15.234375 13.546875 -15.765625 C 12.828125 -16.296875 11.921875 -16.5625 10.828125 -16.5625 C 9.296875 -16.5625 8.054688 -15.992188 7.109375 -14.859375 C 6.160156 -13.734375 5.6875 -12.125 5.6875 -10.03125 C 5.6875 -7.9375 6.148438 -6.316406 7.078125 -5.171875 C 8.015625 -4.035156 9.28125 -3.46875 10.875 -3.46875 C 12.28125 -3.46875 13.382812 -3.832031 14.1875 -4.5625 C 14.988281 -5.300781 15.40625 -6.289062 15.4375 -7.53125 L 11.125 -7.53125 L 11.125 -10.71875 L 19.515625 -10.71875 L 19.515625 -8.203125 C 19.515625 -6.441406 19.140625 -4.925781 18.390625 -3.65625 C 17.648438 -2.394531 16.628906 -1.421875 15.328125 -0.734375 C 14.023438 -0.0546875 12.53125 0.28125 10.84375 0.28125 C 8.96875 0.28125 7.316406 -0.132812 5.890625 -0.96875 C 4.472656 -1.800781 3.367188 -2.984375 2.578125 -4.515625 C 1.785156 -6.054688 1.390625 -7.882812 1.390625 -10 C 1.390625 -12.164062 1.800781 -14.015625 2.625 -15.546875 C 3.457031 -17.085938 4.582031 -18.265625 6 -19.078125 C 7.414062 -19.898438 9.003906 -20.3125 10.765625 -20.3125 C 12.273438 -20.3125 13.640625 -20.023438 14.859375 -19.453125 C 16.085938 -18.878906 17.09375 -18.082031 17.875 -17.0625 C 18.664062 -16.050781 19.148438 -14.882812 19.328125 -13.5625 Z M 15.03125 -13.5625 "/></g></g></g><g fill="#231f20" fill-opacity="1"><g transform="translate(96.723761, 91.102328)"><g><path d="M 1.734375 0 L 1.734375 -20.03125 L 15.234375 -20.03125 L 15.234375 -16.546875 L 5.984375 -16.546875 L 5.984375 -11.765625 L 14.546875 -11.765625 L 14.546875 -8.28125 L 5.984375 -8.28125 L 5.984375 -3.5 L 15.28125 -3.5 L 15.28125 0 Z M 1.734375 0 "/></g></g></g><g fill="#231f20" fill-opacity="1"><g transform="translate(113.595675, 91.102328)"><g><path d="M 0.984375 -16.546875 L 0.984375 -20.03125 L 17.4375 -20.03125 L 17.4375 -16.546875 L 11.296875 -16.546875 L 11.296875 0 L 7.109375 0 L 7.109375 -16.546875 Z M 0.984375 -16.546875 "/></g></g></g><g fill="#000000" fill-opacity="1"><g transform="translate(14.421262, 107.595189)"><g><path d="M 0.503906 -6.089844 L 0.503906 0 L 1.148438 0 L 1.148438 -4.863281 L 1.175781 -4.863281 L 3.324219 0 L 3.863281 0 L 6.011719 -4.863281 L 6.039062 -4.863281 L 6.039062 0 L 6.679688 0 L 6.679688 -6.089844 L 5.976562 -6.089844 L 3.59375 -0.808594 L 1.210938 -6.089844 Z M 0.503906 -6.089844 "/></g></g></g><g fill="#000000" fill-opacity="1"><g transform="translate(23.529692, 107.595189)"><g><path d="M 3.097656 -6.167969 C 1.515625 -6.167969 0.375 -5.117188 0.375 -3.042969 C 0.375 -0.984375 1.515625 0.078125 3.097656 0.078125 C 4.679688 0.078125 5.8125 -0.984375 5.8125 -3.042969 C 5.8125 -5.117188 4.679688 -6.167969 3.097656 -6.167969 Z M 3.097656 -0.496094 C 1.871094 -0.496094 1.042969 -1.3125 1.042969 -3.042969 C 1.042969 -4.777344 1.871094 -5.59375 3.097656 -5.59375 C 4.316406 -5.59375 5.148438 -4.777344 5.148438 -3.042969 C 5.148438 -1.3125 4.316406 -0.496094 3.097656 -0.496094 Z M 3.097656 -0.496094 "/></g></g></g><g fill="#000000" fill-opacity="1"><g transform="translate(31.646371, 107.595189)"><g><path d="M 4.90625 -1.019531 L 4.90625 -1.523438 C 4.90625 -2.253906 4.621094 -2.644531 3.921875 -2.828125 C 4.550781 -3.097656 4.914062 -3.617188 4.914062 -4.367188 C 4.914062 -5.417969 4.253906 -6.089844 2.863281 -6.089844 L 0.503906 -6.089844 L 0.503906 0 L 1.148438 0 L 1.148438 -2.523438 L 3.140625 -2.523438 C 3.722656 -2.523438 4.261719 -2.324219 4.261719 -1.515625 L 4.261719 -1.019531 C 4.261719 -0.445312 4.316406 -0.15625 4.4375 0 L 5.082031 0 C 4.957031 -0.15625 4.90625 -0.445312 4.90625 -1.019531 Z M 2.984375 -3.054688 L 1.148438 -3.054688 L 1.148438 -5.523438 L 2.851562 -5.523438 C 3.792969 -5.523438 4.261719 -5.117188 4.261719 -4.304688 C 4.261719 -3.496094 3.75 -3.054688 2.984375 -3.054688 Z M 2.984375 -3.054688 "/></g></g></g><g fill="#000000" fill-opacity="1"><g transform="translate(38.936593, 107.595189)"><g><path d="M 1.148438 -0.574219 L 1.148438 -2.871094 L 3.976562 -2.871094 L 3.976562 -3.402344 L 1.148438 -3.402344 L 1.148438 -5.515625 L 4.410156 -5.515625 L 4.410156 -6.089844 L 0.503906 -6.089844 L 0.503906 0 L 4.496094 0 L 4.496094 -0.574219 Z M 1.148438 -0.574219 "/></g></g></g><g fill="#000000" fill-opacity="1"><g transform="translate(45.617842, 107.595189)"><g/></g></g><g fill="#000000" fill-opacity="1"><g transform="translate(49.915419, 107.595189)"><g><path d="M 4.765625 -6.089844 L 0.242188 -6.089844 L 0.242188 -5.515625 L 2.183594 -5.515625 L 2.183594 0 L 2.828125 0 L 2.828125 -5.515625 L 4.765625 -5.515625 Z M 4.765625 -6.089844 "/></g></g></g><g fill="#000000" fill-opacity="1"><g transform="translate(56.857662, 107.595189)"><g><path d="M 4.460938 -6.089844 L 4.460938 -3.246094 L 1.148438 -3.246094 L 1.148438 -6.089844 L 0.503906 -6.089844 L 0.503906 0 L 1.148438 0 L 1.148438 -2.707031 L 4.460938 -2.707031 L 4.460938 0 L 5.105469 0 L 5.105469 -6.089844 Z M 4.460938 -6.089844 "/></g></g></g><g fill="#000000" fill-opacity="1"><g transform="translate(64.391472, 107.595189)"><g><path d="M 4.976562 0 L 5.671875 0 L 3.234375 -6.089844 L 2.679688 -6.089844 L 0.242188 0 L 0.941406 0 L 1.566406 -1.617188 L 4.351562 -1.617188 Z M 1.757812 -2.113281 L 2.957031 -5.238281 L 4.160156 -2.113281 Z M 1.757812 -2.113281 "/></g></g></g><g fill="#000000" fill-opacity="1"><g transform="translate(72.229764, 107.595189)"><g><path d="M 5.210938 -6.089844 L 4.566406 -6.089844 L 4.566406 -0.972656 L 4.550781 -0.972656 L 1.226562 -6.089844 L 0.503906 -6.089844 L 0.503906 0 L 1.148438 0 L 1.148438 -5.097656 L 1.175781 -5.097656 L 4.480469 0 L 5.210938 0 Z M 5.210938 -6.089844 "/></g></g></g><g fill="#000000" fill-opacity="1"><g transform="translate(79.876664, 107.595189)"><g/></g></g><g fill="#000000" fill-opacity="1"><g transform="translate(84.174241, 107.595189)"><g><path d="M 7.726562 -6.089844 L 6.289062 -0.949219 L 4.664062 -6.089844 L 3.984375 -6.089844 L 2.359375 -0.949219 L 0.914062 -6.089844 L 0.242188 -6.089844 L 2.019531 0 L 2.628906 0 L 4.324219 -5.175781 L 6.019531 0 L 6.628906 0 L 8.402344 -6.089844 Z M 7.726562 -6.089844 "/></g></g></g><g fill="#000000" fill-opacity="1"><g transform="translate(94.744192, 107.595189)"><g><path d="M 4.976562 0 L 5.671875 0 L 3.234375 -6.089844 L 2.679688 -6.089844 L 0.242188 0 L 0.941406 0 L 1.566406 -1.617188 L 4.351562 -1.617188 Z M 1.757812 -2.113281 L 2.957031 -5.238281 L 4.160156 -2.113281 Z M 1.757812 -2.113281 "/></g></g></g><g fill="#000000" fill-opacity="1"><g transform="translate(102.58248, 107.595189)"><g><path d="M 4.765625 -6.089844 L 0.242188 -6.089844 L 0.242188 -5.515625 L 2.183594 -5.515625 L 2.183594 0 L 2.828125 0 L 2.828125 -5.515625 L 4.765625 -5.515625 Z M 4.765625 -6.089844 "/></g></g></g><g fill="#000000" fill-opacity="1"><g transform="translate(109.524718, 107.595189)"><g><path d="M 3.054688 -0.496094 C 1.886719 -0.496094 1.042969 -1.332031 1.042969 -3.042969 C 1.042969 -4.765625 1.886719 -5.59375 3.054688 -5.59375 C 3.933594 -5.59375 4.460938 -5.210938 4.699219 -4.601562 L 5.351562 -4.601562 C 5.117188 -5.601562 4.21875 -6.167969 3.042969 -6.167969 C 1.515625 -6.167969 0.375 -5.140625 0.375 -3.042969 C 0.375 -0.949219 1.515625 0.078125 3.042969 0.078125 C 4.226562 0.078125 5.132812 -0.488281 5.375 -1.496094 L 4.722656 -1.496094 C 4.480469 -0.878906 3.941406 -0.496094 3.054688 -0.496094 Z M 3.054688 -0.496094 "/></g></g></g><g fill="#000000" fill-opacity="1"><g transform="translate(117.084625, 107.595189)"><g><path d="M 4.460938 -6.089844 L 4.460938 -3.246094 L 1.148438 -3.246094 L 1.148438 -6.089844 L 0.503906 -6.089844 L 0.503906 0 L 1.148438 0 L 1.148438 -2.707031 L 4.460938 -2.707031 L 4.460938 0 L 5.105469 0 L 5.105469 -6.089844 Z M 4.460938 -6.089844 "/></g></g></g><g fill="#000000" fill-opacity="1"><g transform="translate(124.61843, 107.595189)"><g><path d="M 1.148438 -0.574219 L 1.148438 -2.871094 L 3.976562 -2.871094 L 3.976562 -3.402344 L 1.148438 -3.402344 L 1.148438 -5.515625 L 4.410156 -5.515625 L 4.410156 -6.089844 L 0.503906 -6.089844 L 0.503906 0 L 4.496094 0 L 4.496094 -0.574219 Z M 1.148438 -0.574219 "/></g></g></g><g fill="#000000" fill-opacity="1"><g transform="translate(131.299677, 107.595189)"><g><path d="M 3.054688 -3.332031 L 2.246094 -3.488281 C 1.496094 -3.644531 1.164062 -3.992188 1.164062 -4.523438 C 1.164062 -5.070312 1.574219 -5.621094 2.582031 -5.621094 C 3.53125 -5.621094 3.941406 -5.140625 4.046875 -4.585938 L 4.707031 -4.585938 C 4.574219 -5.523438 3.871094 -6.167969 2.582031 -6.167969 C 1.21875 -6.167969 0.503906 -5.445312 0.503906 -4.53125 C 0.503906 -3.652344 1.097656 -3.175781 2.113281 -2.964844 L 3.011719 -2.785156 C 3.664062 -2.652344 4.203125 -2.382812 4.203125 -1.652344 C 4.203125 -0.972656 3.679688 -0.476562 2.644531 -0.476562 C 1.566406 -0.476562 1.15625 -1.070312 1.042969 -1.738281 L 0.375 -1.738281 C 0.488281 -0.695312 1.199219 0.078125 2.644531 0.078125 C 4.035156 0.078125 4.871094 -0.601562 4.871094 -1.652344 C 4.871094 -2.6875 4.175781 -3.105469 3.054688 -3.332031 Z M 3.054688 -3.332031 "/></g></g></g></svg>