<svg xmlns="http://www.w3.org/2000/svg" xmlns:xlink="http://www.w3.org/1999/xlink" width="410" zoomAndPan="magnify" viewBox="0 0 307.5 60" height="80" preserveAspectRatio="xMidYMid meet" version="1.0"><defs><g/><clipPath id="fa65f05f1d"><path d="M 0 0.046875 L 51.75 0.046875 L 51.75 59.949219 L 0 59.949219 Z M 0 0.046875 " clip-rule="nonzero"/></clipPath><clipPath id="1da9e3509d"><path d="M 4 28 L 48 28 L 48 59.949219 L 4 59.949219 Z M 4 28 " clip-rule="nonzero"/></clipPath></defs><g fill="#231f20" fill-opacity="1"><g transform="translate(72.973952, 46.302617)"><g><path d="M 2.65625 0 L 2.65625 -30.578125 L 22.90625 -30.578125 L 22.90625 -25.25 L 9.125 -25.25 L 9.125 -17.96875 L 21.5625 -17.96875 L 21.5625 -12.625 L 9.125 -12.625 L 9.125 0 Z M 2.65625 0 "/></g></g></g><g fill="#231f20" fill-opacity="1"><g transform="translate(109.968645, 46.302617)"><g><path d="M 7.921875 0 L 1 0 L 11.5625 -30.578125 L 19.890625 -30.578125 L 30.4375 0 L 23.5 0 L 21.234375 -6.96875 L 10.203125 -6.96875 Z M 11.84375 -12.015625 L 19.609375 -12.015625 L 15.84375 -23.59375 L 15.609375 -23.59375 Z M 11.84375 -12.015625 "/></g></g></g><g fill="#231f20" fill-opacity="1"><g transform="translate(153.816322, 46.302617)"><g><path d="M 21.59375 -30.578125 L 28.015625 -30.578125 L 28.015625 -10.359375 C 28.015625 -8.046875 27.46875 -6.085938 26.375 -4.484375 C 25.289062 -2.878906 23.796875 -1.65625 21.890625 -0.8125 C 19.984375 0.0195312 17.796875 0.4375 15.328125 0.4375 C 12.859375 0.4375 10.664062 0.0195312 8.75 -0.8125 C 6.84375 -1.65625 5.347656 -2.878906 4.265625 -4.484375 C 3.191406 -6.085938 2.65625 -8.046875 2.65625 -10.359375 L 2.65625 -30.578125 L 9.125 -30.578125 L 9.125 -10.59375 C 9.125 -8.957031 9.710938 -7.671875 10.890625 -6.734375 C 12.066406 -5.796875 13.546875 -5.328125 15.328125 -5.328125 C 17.140625 -5.328125 18.632812 -5.796875 19.8125 -6.734375 C 21 -7.671875 21.59375 -8.957031 21.59375 -10.59375 Z M 21.59375 -30.578125 "/></g></g></g><g fill="#231f20" fill-opacity="1"><g transform="translate(196.88762, 46.302617)"><g><path d="M 22.9375 -20.6875 C 22.53125 -22.125 21.773438 -23.25 20.671875 -24.0625 C 19.566406 -24.875 18.1875 -25.28125 16.53125 -25.28125 C 14.1875 -25.28125 12.289062 -24.414062 10.84375 -22.6875 C 9.394531 -20.957031 8.671875 -18.5 8.671875 -15.3125 C 8.671875 -12.125 9.382812 -9.65625 10.8125 -7.90625 C 12.238281 -6.164062 14.164062 -5.296875 16.59375 -5.296875 C 18.738281 -5.296875 20.425781 -5.851562 21.65625 -6.96875 C 22.882812 -8.09375 23.519531 -9.601562 23.5625 -11.5 L 16.984375 -11.5 L 16.984375 -16.359375 L 29.78125 -16.359375 L 29.78125 -12.515625 C 29.78125 -9.835938 29.210938 -7.53125 28.078125 -5.59375 C 26.953125 -3.65625 25.394531 -2.164062 23.40625 -1.125 C 21.414062 -0.09375 19.132812 0.421875 16.5625 0.421875 C 13.695312 0.421875 11.175781 -0.210938 9 -1.484375 C 6.832031 -2.753906 5.144531 -4.5625 3.9375 -6.90625 C 2.726562 -9.25 2.125 -12.035156 2.125 -15.265625 C 2.125 -18.566406 2.753906 -21.390625 4.015625 -23.734375 C 5.273438 -26.085938 6.984375 -27.882812 9.140625 -29.125 C 11.304688 -30.375 13.734375 -31 16.421875 -31 C 18.734375 -31 20.820312 -30.5625 22.6875 -29.6875 C 24.5625 -28.8125 26.097656 -27.597656 27.296875 -26.046875 C 28.492188 -24.492188 29.226562 -22.707031 29.5 -20.6875 Z M 22.9375 -20.6875 "/></g></g></g><g fill="#231f20" fill-opacity="1"><g transform="translate(241.272779, 46.302617)"><g><path d="M 2.65625 0 L 2.65625 -30.578125 L 23.265625 -30.578125 L 23.265625 -25.25 L 9.125 -25.25 L 9.125 -17.96875 L 22.203125 -17.96875 L 22.203125 -12.625 L 9.125 -12.625 L 9.125 -5.328125 L 23.328125 -5.328125 L 23.328125 0 Z M 2.65625 0 "/></g></g></g><g fill="#231f20" fill-opacity="1"><g transform="translate(279.432024, 46.302617)"><g><path d="M 1.5 -25.25 L 1.5 -30.578125 L 26.609375 -30.578125 L 26.609375 -25.25 L 17.25 -25.25 L 17.25 0 L 10.859375 0 L 10.859375 -25.25 Z M 1.5 -25.25 "/></g></g></g><g clip-path="url(#fa65f05f1d)"><path fill="#231f20" d="M 39.039062 27.871094 L 37.003906 2.449219 C 37.003906 1.089844 36.175781 -0.0117188 35.15625 -0.0117188 L 17.386719 -0.0117188 C 16.367188 -0.0117188 15.539062 1.089844 15.539062 2.449219 L 13.140625 27.671875 C 5.351562 32.128906 0.0820312 40.5 0.0820312 50.097656 C 0.0820312 59.621094 5.273438 67.933594 12.960938 72.414062 L 15.539062 99.535156 C 15.539062 100.894531 16.367188 101.996094 17.386719 101.996094 L 35.15625 101.996094 C 36.175781 101.996094 37 100.894531 37 99.535156 L 39.1875 72.234375 C 46.710938 67.710938 51.769531 59.496094 51.769531 50.097656 C 51.769531 40.640625 46.644531 32.375 39.039062 27.871094 Z M 39.4375 69.148438 C 35.617188 71.863281 30.960938 73.480469 25.925781 73.480469 C 21.003906 73.480469 16.4375 71.941406 12.667969 69.335938 C 6.558594 65.113281 2.542969 58.070312 2.542969 50.101562 C 2.542969 42.050781 6.636719 34.933594 12.851562 30.730469 C 16.585938 28.203125 21.085938 26.722656 25.925781 26.722656 C 30.890625 26.722656 35.492188 28.292969 39.28125 30.941406 C 45.335938 35.171875 49.308594 42.175781 49.308594 50.101562 C 49.308594 57.957031 45.398438 64.90625 39.4375 69.148438 Z M 39.4375 69.148438 " fill-opacity="1" fill-rule="nonzero"/></g><g clip-path="url(#1da9e3509d)"><path fill="#231f20" d="M 39.496094 33.59375 C 35.804688 30.550781 31.074219 28.722656 25.925781 28.722656 C 20.886719 28.722656 16.257812 30.484375 12.597656 33.414062 C 7.695312 37.335938 4.542969 43.351562 4.542969 50.101562 C 4.542969 56.769531 7.617188 62.726562 12.414062 66.652344 C 16.101562 69.664062 20.804688 71.480469 25.925781 71.480469 C 31.148438 71.480469 35.933594 69.59375 39.652344 66.472656 C 44.328125 62.550781 47.308594 56.667969 47.308594 50.101562 C 47.308594 43.457031 44.265625 37.515625 39.496094 33.59375 Z M 39.757812 65.128906 C 36.113281 68.484375 31.261719 70.554688 25.925781 70.554688 C 20.683594 70.554688 15.910156 68.554688 12.285156 65.300781 C 8.113281 61.554688 5.464844 56.136719 5.464844 50.097656 C 5.464844 43.972656 8.1875 38.480469 12.472656 34.726562 C 16.074219 31.574219 20.773438 29.644531 25.925781 29.644531 C 31.1875 29.644531 35.976562 31.65625 39.605469 34.929688 C 43.757812 38.675781 46.386719 44.078125 46.386719 50.097656 C 46.386719 56.042969 43.820312 61.386719 39.757812 65.128906 Z M 39.757812 65.128906 " fill-opacity="1" fill-rule="nonzero"/></g><path fill="#000000" d="M 39.296875 41.722656 C 38.90625 41.160156 38.140625 41.019531 37.582031 41.410156 L 25.910156 49.46875 L 17.71875 43.890625 C 17.15625 43.507812 16.390625 43.652344 16.007812 44.214844 C 15.625 44.777344 15.769531 45.542969 16.332031 45.925781 L 23.777344 50.996094 L 25.21875 51.980469 C 25.25 52 25.28125 52.003906 25.3125 52.023438 C 25.347656 52.042969 25.378906 52.054688 25.414062 52.070312 C 25.574219 52.140625 25.742188 52.191406 25.914062 52.191406 L 25.925781 52.191406 C 26.03125 52.1875 26.136719 52.171875 26.242188 52.140625 C 26.273438 52.132812 26.304688 52.117188 26.339844 52.105469 C 26.417969 52.078125 26.488281 52.042969 26.558594 52 C 26.578125 51.988281 26.597656 51.984375 26.613281 51.972656 L 28.03125 50.996094 L 38.980469 43.433594 C 39.539062 43.046875 39.683594 42.28125 39.296875 41.722656 Z M 39.296875 41.722656 " fill-opacity="1" fill-rule="nonzero"/></svg>