<svg xmlns="http://www.w3.org/2000/svg" xmlns:xlink="http://www.w3.org/1999/xlink" width="410" zoomAndPan="magnify" viewBox="0 0 307.5 60" height="80" preserveAspectRatio="xMidYMid meet" version="1.0"><defs><g/><clipPath id="31a6175025"><path d="M 37 19 L 62.964844 19 L 62.964844 57 L 37 57 Z M 37 19 " clip-rule="nonzero"/></clipPath><clipPath id="0ca8e4e15b"><path d="M 2.214844 3 L 59 3 L 59 58.605469 L 2.214844 58.605469 Z M 2.214844 3 " clip-rule="nonzero"/></clipPath><clipPath id="1d9f22a3ad"><path d="M 44 1.605469 L 61 1.605469 L 61 16 L 44 16 Z M 44 1.605469 " clip-rule="nonzero"/></clipPath></defs><g fill="#000000" fill-opacity="1"><g transform="translate(71.210161, 52.267554)"><g><path d="M 11.851562 0.777344 L 12.507812 0.71875 L 12.925781 0.660156 L 13.585938 0.660156 L 14.003906 0.597656 L 14.542969 0.660156 L 14.960938 0.597656 L 15.742188 0.359375 L 16.21875 0.300781 L 17.117188 0 L 17.476562 -0.238281 L 18.195312 -0.417969 L 18.734375 -0.839844 L 19.332031 -1.195312 L 19.808594 -1.617188 L 20.109375 -1.855469 L 20.589844 -2.394531 L 20.886719 -2.632812 L 21.1875 -3.230469 L 21.546875 -3.472656 L 22.085938 -4.488281 L 22.382812 -5.328125 L 22.503906 -5.867188 L 22.625 -6.34375 L 22.863281 -7.121094 L 22.863281 -8.019531 L 22.921875 -8.378906 L 23.101562 -9.21875 L 23.101562 -10.894531 L 23.160156 -11.3125 L 23.101562 -11.730469 L 23.160156 -12.089844 L 23.222656 -12.925781 L 23.101562 -13.285156 L 22.804688 -14.304688 L 22.742188 -14.722656 L 22.683594 -15.203125 L 22.625 -15.621094 L 22.265625 -16.878906 L 21.90625 -17.65625 L 21.425781 -18.851562 L 21.367188 -19.152344 L 20.828125 -19.808594 L 20.410156 -20.828125 L 19.691406 -21.546875 L 19.390625 -22.085938 L 18.851562 -22.683594 L 18.671875 -22.980469 L 18.375 -23.160156 L 18.195312 -23.519531 L 17.597656 -24 L 17.238281 -24.238281 L 16.996094 -24.539062 L 16.757812 -25.015625 L 16.457031 -25.316406 L 16.21875 -25.675781 L 15.441406 -26.632812 L 14.78125 -27.472656 L 14.363281 -28.25 L 14.125 -28.726562 L 13.644531 -29.566406 L 13.226562 -30.703125 L 13.167969 -31.121094 L 13.167969 -31.898438 L 13.226562 -32.738281 L 13.40625 -33.335938 L 13.464844 -33.753906 L 13.707031 -34.355469 L 13.886719 -34.773438 L 14.183594 -35.191406 L 14.84375 -35.492188 L 15.5625 -35.730469 L 16.339844 -35.609375 L 16.9375 -35.132812 L 17.476562 -34.59375 L 17.65625 -34.234375 L 17.777344 -33.515625 L 17.777344 -32.140625 L 17.597656 -30.285156 L 17.476562 -29.804688 L 17.535156 -29.027344 L 18.015625 -28.609375 L 18.851562 -28.609375 L 19.691406 -28.546875 L 23.042969 -28.546875 L 24.121094 -28.609375 L 24.835938 -28.96875 L 25.078125 -30.285156 L 25.316406 -31.960938 L 25.375 -32.976562 L 25.316406 -34.175781 L 25.316406 -35.492188 L 24.957031 -36.925781 L 24.777344 -37.347656 L 24.65625 -38.003906 L 24.417969 -38.363281 L 24 -39.023438 L 23.820312 -39.320312 L 23.222656 -39.980469 L 23.042969 -40.21875 L 22.382812 -40.816406 L 21.90625 -40.996094 L 21.484375 -41.355469 L 20.769531 -41.714844 L 20.527344 -41.894531 L 20.109375 -41.953125 L 19.09375 -42.253906 L 18.195312 -42.3125 L 17.65625 -42.433594 L 17.238281 -42.433594 L 15.742188 -42.492188 L 13.886719 -42.492188 L 12.867188 -42.195312 L 11.730469 -41.953125 L 11.070312 -41.597656 L 10.113281 -41.238281 L 9.039062 -40.457031 L 8.320312 -39.859375 L 7.960938 -39.5 L 7.601562 -38.902344 L 7.421875 -38.664062 L 6.941406 -38.125 L 6.761719 -37.824219 L 6.582031 -37.40625 L 6.34375 -36.925781 L 5.984375 -36.148438 L 5.925781 -35.550781 L 5.746094 -34.953125 L 5.507812 -34.535156 L 5.445312 -33.695312 L 5.265625 -33.277344 L 5.148438 -32.078125 L 5.148438 -30.34375 L 5.085938 -29.925781 L 5.148438 -29.445312 L 5.207031 -28.667969 L 5.445312 -27.890625 L 5.566406 -27.410156 L 5.746094 -26.992188 L 6.042969 -26.574219 L 6.285156 -26.035156 L 6.644531 -25.136719 L 7.003906 -24.539062 L 7.300781 -24.121094 L 7.898438 -23.640625 L 8.5 -22.980469 L 9.039062 -22.203125 L 9.753906 -21.425781 L 10.414062 -20.648438 L 10.652344 -20.289062 L 10.953125 -19.988281 L 11.609375 -19.210938 L 11.910156 -18.734375 L 12.328125 -18.3125 L 12.507812 -18.015625 L 12.628906 -17.714844 L 12.867188 -17.355469 L 13.285156 -16.519531 L 13.765625 -15.800781 L 14.246094 -14.960938 L 14.425781 -14.066406 L 14.425781 -13.707031 L 14.664062 -12.628906 L 14.664062 -11.671875 L 14.722656 -10.832031 L 14.722656 -10.414062 L 14.664062 -9.816406 L 14.542969 -9.097656 L 14.304688 -8.378906 L 14.066406 -7.960938 L 13.765625 -7.421875 L 13.464844 -7.121094 L 12.808594 -6.941406 L 12.328125 -6.824219 L 11.789062 -6.824219 L 11.011719 -7.003906 L 10.414062 -7.601562 L 9.996094 -8.5 L 9.816406 -9.097656 L 9.695312 -10.414062 L 9.695312 -11.671875 L 9.753906 -12.089844 L 9.753906 -14.304688 L 9.277344 -15.140625 L 8.5 -15.203125 L 5.148438 -15.203125 L 4.429688 -15.261719 L 2.992188 -15.140625 L 2.15625 -14.722656 L 1.976562 -13.765625 L 1.855469 -13.347656 L 1.796875 -12.867188 L 1.675781 -11.96875 L 1.734375 -11.550781 L 1.675781 -10.535156 L 1.675781 -8.738281 L 1.796875 -7.78125 L 1.855469 -7.421875 L 2.035156 -6.582031 L 2.09375 -6.222656 L 2.515625 -5.148438 L 2.632812 -4.667969 L 3.050781 -3.652344 L 3.589844 -2.8125 L 4.191406 -2.09375 L 4.789062 -1.316406 L 5.507812 -0.839844 L 6.105469 -0.417969 L 6.761719 -0.179688 L 7.71875 0.238281 L 8.140625 0.359375 L 8.738281 0.480469 L 9.394531 0.597656 L 9.996094 0.597656 L 10.414062 0.660156 Z M 11.851562 0.777344 "/></g></g></g><g fill="#000000" fill-opacity="1"><g transform="translate(94.311289, 52.267554)"><g><path d="M 4.847656 0.121094 L 5.328125 0.0585938 L 7.003906 0.121094 L 7.363281 -0.121094 L 7.601562 -0.539062 L 7.78125 -0.839844 L 7.960938 -1.496094 L 8.320312 -2.394531 L 8.917969 -3.53125 L 9.15625 -4.25 L 9.335938 -4.667969 L 9.457031 -5.085938 L 9.875 -5.867188 L 10.175781 -6.523438 L 11.789062 -6.523438 L 14.425781 -6.464844 L 15.382812 -6.34375 L 16.699219 -6.285156 L 16.757812 -5.804688 L 16.757812 -2.992188 L 16.699219 -2.394531 L 16.757812 -1.796875 L 16.816406 -0.71875 L 16.9375 -0.121094 L 17.175781 0.0585938 L 18.074219 0.0585938 L 18.851562 0.121094 L 19.453125 0.0585938 L 19.871094 0 L 20.589844 0.0585938 L 21.066406 0.0585938 L 22.382812 0 L 23.222656 0 L 23.699219 0.0585938 L 24.121094 0 C 24.359375 0 24.539062 0.0585938 24.777344 0 C 25.078125 -0.179688 25.015625 -0.71875 24.957031 -0.957031 L 24.957031 -2.214844 L 24.898438 -3.53125 L 24.898438 -4.070312 L 24.835938 -4.546875 L 24.898438 -5.386719 L 24.898438 -6.285156 L 24.835938 -6.703125 L 24.777344 -7.480469 L 24.777344 -7.839844 L 24.65625 -10.113281 L 24.71875 -10.535156 L 24.65625 -11.371094 L 24.71875 -12.269531 L 24.65625 -13.167969 L 24.65625 -13.585938 L 24.597656 -16.339844 L 24.597656 -18.132812 L 24.539062 -18.613281 L 24.480469 -19.332031 L 24.480469 -21.664062 L 24.359375 -22.324219 L 24.300781 -23.28125 L 24.300781 -23.640625 L 24.238281 -24.417969 L 24.300781 -24.777344 L 24.238281 -25.617188 L 24.238281 -26.8125 L 24.121094 -27.652344 L 24.121094 -28.96875 L 24.179688 -29.386719 L 24.121094 -30.285156 L 24.121094 -31.121094 L 24 -32.320312 L 23.941406 -33.097656 L 23.941406 -33.933594 L 23.878906 -36.089844 L 23.878906 -37.167969 L 23.761719 -37.527344 L 23.761719 -38.84375 L 23.582031 -41.417969 L 23.160156 -41.714844 L 22.863281 -41.835938 L 21.90625 -41.835938 L 21.367188 -41.773438 L 20.949219 -41.894531 L 20.410156 -41.894531 L 19.273438 -41.835938 L 18.3125 -41.835938 L 17.714844 -41.773438 L 16.578125 -41.835938 L 15.980469 -41.835938 L 15.5625 -41.773438 L 15.320312 -41.117188 L 15.140625 -40.757812 L 14.960938 -40.339844 L 14.425781 -39.261719 L 14.003906 -38.484375 L 13.644531 -37.40625 L 13.527344 -37.105469 L 13.285156 -36.746094 L 12.925781 -36.089844 L 12.808594 -35.671875 L 12.6875 -35.3125 L 12.507812 -34.953125 L 12.390625 -34.535156 L 11.851562 -33.457031 L 11.671875 -33.039062 L 11.492188 -32.4375 L 11.132812 -31.898438 L 10.953125 -31.539062 L 10.652344 -30.761719 L 10.175781 -29.507812 L 9.933594 -29.148438 L 9.636719 -28.726562 L 9.457031 -27.890625 L 9.097656 -27.113281 L 8.976562 -26.8125 L 8.796875 -26.035156 L 8.5 -25.617188 L 8.320312 -24.835938 L 8.140625 -24.480469 L 7.78125 -23.820312 L 7.480469 -22.804688 L 7.0625 -22.023438 L 6.882812 -21.546875 L 6.402344 -19.871094 L 6.222656 -19.511719 L 5.925781 -18.671875 L 5.746094 -18.3125 L 5.566406 -17.894531 L 5.507812 -17.535156 L 5.148438 -16.699219 L 5.027344 -16.277344 L 4.667969 -15.5625 L 4.367188 -15.082031 L 4.25 -14.542969 L 4.128906 -14.125 L 3.710938 -13.285156 L 3.53125 -12.867188 L 3.230469 -12.089844 L 3.050781 -11.730469 L 2.992188 -11.3125 L 2.871094 -10.953125 L 2.574219 -10.234375 L 2.273438 -9.816406 L 2.15625 -9.457031 L 1.675781 -8.378906 L 1.4375 -7.601562 L 0.777344 -6.164062 L 0.480469 -5.445312 L 0.121094 -4.726562 L -0.480469 -2.933594 L -0.957031 -2.15625 L -1.316406 -1.4375 L -1.375 -1.078125 L -1.496094 -0.660156 L -1.375 -0.179688 L -0.839844 -0.0585938 L 3.53125 0 L 3.949219 0.0585938 Z M 14.722656 -14.304688 L 14.183594 -14.363281 L 13.527344 -14.425781 L 13.046875 -14.425781 L 12.628906 -14.78125 L 12.808594 -15.203125 L 12.925781 -15.742188 L 13.046875 -16.160156 L 13.347656 -17.175781 L 13.585938 -17.597656 L 13.886719 -18.492188 L 13.945312 -18.914062 L 14.304688 -20.230469 L 14.484375 -20.769531 L 14.664062 -21.1875 L 14.84375 -21.726562 L 15.082031 -22.144531 L 15.140625 -22.5625 L 15.382812 -23.160156 L 15.621094 -23.640625 L 15.921875 -24.597656 L 16.101562 -25.195312 L 16.398438 -26.15625 L 16.636719 -26.933594 L 17.117188 -27.113281 L 17.175781 -25.734375 L 17.117188 -23.582031 L 17.058594 -21.304688 L 17.117188 -19.871094 L 16.996094 -19.390625 L 16.996094 -18.375 L 16.9375 -17.953125 L 16.9375 -16.398438 L 16.878906 -15.921875 L 16.9375 -15.441406 L 16.878906 -14.601562 L 16.519531 -14.304688 Z M 14.722656 -14.304688 "/></g></g></g><g fill="#000000" fill-opacity="1"><g transform="translate(120.285101, 52.267554)"><g><path d="M 2.632812 0.0585938 L 3.410156 0 L 3.832031 0.0585938 L 5.507812 0.0585938 L 6.105469 0 L 11.011719 0 L 12.210938 -0.0585938 L 13.046875 0.0585938 L 13.945312 0 L 15.023438 0.0585938 L 16.339844 -0.121094 L 17.117188 -0.238281 L 18.253906 -0.238281 L 18.734375 -0.660156 L 18.972656 -1.617188 L 19.09375 -2.515625 L 19.152344 -2.871094 L 19.152344 -3.292969 L 19.332031 -3.710938 L 19.628906 -5.804688 L 19.808594 -6.285156 L 19.75 -6.703125 L 19.871094 -7.121094 L 19.929688 -8.019531 L 19.570312 -8.199219 L 18.015625 -8.199219 L 16.699219 -8.140625 L 13.585938 -8.140625 L 13.046875 -8.199219 L 12.449219 -8.199219 L 12.148438 -8.5 L 12.148438 -9.097656 L 12.269531 -9.695312 L 12.328125 -10.355469 L 12.449219 -10.773438 L 12.507812 -11.132812 L 12.570312 -11.550781 L 12.570312 -12.148438 L 12.6875 -12.6875 L 12.75 -13.464844 L 12.988281 -14.246094 L 13.046875 -15.082031 L 13.167969 -15.5625 L 13.167969 -15.980469 L 13.40625 -16.9375 L 13.464844 -17.355469 L 13.527344 -17.835938 L 13.707031 -18.671875 L 13.765625 -19.570312 L 14.003906 -20.527344 L 14.066406 -20.949219 L 14.246094 -21.84375 L 14.363281 -22.265625 L 14.363281 -23.101562 L 14.484375 -23.519531 L 14.664062 -24.777344 L 14.664062 -25.257812 L 14.78125 -25.675781 L 14.722656 -26.15625 L 14.960938 -26.574219 L 15.140625 -27.351562 L 15.320312 -28.1875 L 15.441406 -28.609375 L 15.5 -29.027344 L 15.621094 -29.507812 L 15.5 -29.984375 L 15.742188 -30.402344 L 15.859375 -31.242188 L 16.101562 -32.078125 L 16.101562 -32.558594 L 16.277344 -33.394531 L 16.757812 -35.492188 L 16.878906 -36.089844 L 16.996094 -36.746094 L 17.175781 -38.003906 L 17.296875 -38.363281 L 17.296875 -38.78125 L 17.65625 -40.21875 L 17.65625 -40.636719 L 17.714844 -41.058594 L 17.535156 -41.773438 L 16.339844 -41.835938 L 14.003906 -41.835938 L 11.789062 -41.894531 L 10.355469 -41.894531 L 9.394531 -41.773438 L 9.21875 -41.417969 L 8.917969 -40.21875 L 8.796875 -39.859375 L 8.796875 -39.441406 L 8.738281 -38.722656 L 8.5 -38.003906 L 8.320312 -37.046875 L 8.257812 -36.089844 L 8.019531 -35.671875 L 8.019531 -35.3125 L 7.960938 -34.890625 L 7.960938 -34.472656 L 7.71875 -34.113281 L 7.601562 -33.457031 L 7.542969 -32.679688 L 7.421875 -32.199219 L 7.542969 -31.78125 L 7.421875 -31.300781 L 7.183594 -30.464844 L 7.003906 -29.984375 L 7.0625 -29.507812 L 6.882812 -28.25 L 6.761719 -27.53125 L 6.761719 -27.113281 L 6.464844 -26.335938 L 6.464844 -25.496094 L 6.402344 -25.015625 L 6.105469 -24.238281 L 5.984375 -23.519531 L 5.867188 -22.742188 L 5.507812 -21.066406 L 5.507812 -20.769531 L 5.265625 -19.929688 L 5.027344 -18.132812 L 4.726562 -17.296875 L 4.726562 -16.878906 L 4.488281 -16.039062 L 4.488281 -15.679688 L 4.429688 -15.261719 L 4.367188 -14.902344 L 4.367188 -14.066406 L 4.25 -13.707031 L 4.128906 -12.867188 L 4.070312 -12.507812 L 4.070312 -12.148438 L 3.890625 -11.730469 L 3.710938 -10.953125 L 3.769531 -10.59375 L 3.589844 -10.175781 L 3.472656 -9.816406 L 3.171875 -8.976562 L 3.171875 -8.257812 L 3.050781 -7.71875 L 2.933594 -6.941406 L 2.871094 -6.582031 L 2.871094 -6.164062 L 2.632812 -5.386719 L 2.632812 -4.488281 L 2.394531 -3.710938 L 2.335938 -3.351562 L 2.273438 -2.933594 L 2.09375 -2.335938 L 1.855469 -1.734375 L 1.796875 -1.375 L 1.855469 -1.015625 L 1.914062 -0.597656 L 2.15625 -0.238281 Z M 2.632812 0.0585938 "/></g></g></g><g fill="#000000" fill-opacity="1"><g transform="translate(140.633238, 52.267554)"><g><path d="M 8.796875 0.0585938 L 9.277344 0 L 10.234375 -0.0585938 L 11.492188 -0.0585938 L 11.851562 -0.121094 L 12.628906 -0.0585938 L 13.585938 -0.121094 L 19.273438 -0.121094 L 19.453125 -0.777344 L 19.570312 -1.316406 L 19.628906 -2.335938 L 19.808594 -3.230469 L 19.871094 -3.652344 L 19.988281 -4.011719 L 20.109375 -4.429688 L 20.109375 -5.207031 L 20.347656 -6.523438 L 20.410156 -7.003906 L 20.527344 -7.660156 L 20.589844 -7.898438 L 20.648438 -8.378906 L 20.230469 -8.558594 L 18.554688 -8.5 L 17.238281 -8.558594 L 16.398438 -8.617188 L 12.867188 -8.617188 L 12.03125 -8.738281 L 11.789062 -8.976562 L 11.789062 -9.457031 L 12.03125 -11.011719 L 12.210938 -12.089844 L 12.328125 -12.507812 L 12.390625 -13.105469 L 12.507812 -13.644531 L 12.6875 -14.246094 L 12.925781 -15.921875 L 13.105469 -16.699219 L 13.347656 -17.355469 L 13.886719 -17.355469 L 14.664062 -17.417969 L 15.320312 -17.417969 L 16.339844 -17.355469 L 17.835938 -17.417969 L 18.375 -17.417969 L 19.273438 -17.476562 L 19.871094 -17.476562 L 19.988281 -17.597656 L 20.109375 -18.433594 L 20.289062 -19.390625 L 20.410156 -20.230469 L 20.589844 -20.707031 L 20.589844 -21.128906 L 20.769531 -22.023438 L 20.886719 -22.445312 L 21.066406 -23.28125 L 21.1875 -23.941406 L 21.1875 -24.417969 L 21.304688 -25.136719 L 20.949219 -25.617188 L 20.46875 -25.734375 L 18.914062 -25.734375 L 17.777344 -25.617188 L 15.679688 -25.675781 L 14.601562 -25.675781 L 14.722656 -26.753906 L 14.902344 -27.351562 L 14.84375 -27.832031 L 14.960938 -28.25 L 15.140625 -29.085938 L 15.261719 -29.925781 L 15.441406 -31.0625 L 15.441406 -31.539062 L 15.621094 -31.898438 L 15.621094 -32.738281 L 15.679688 -33.15625 L 15.859375 -33.875 L 17.296875 -33.933594 L 21.1875 -33.933594 L 21.90625 -33.996094 L 24.417969 -33.996094 L 25.015625 -34.054688 L 25.195312 -34.832031 L 25.257812 -35.191406 L 25.496094 -36.03125 L 25.496094 -36.507812 L 25.675781 -37.40625 L 25.734375 -37.765625 L 25.796875 -38.183594 L 25.976562 -38.601562 L 25.976562 -38.960938 L 26.09375 -40.457031 L 26.09375 -40.816406 L 26.273438 -41.476562 L 25.976562 -41.894531 L 25.4375 -41.953125 L 24.835938 -42.015625 L 24.300781 -41.953125 L 22.980469 -41.953125 L 21.246094 -41.894531 L 20.769531 -41.953125 L 19.390625 -42.015625 L 14.902344 -41.953125 L 13.585938 -41.894531 L 12.988281 -41.894531 L 12.507812 -41.953125 L 12.089844 -41.953125 L 11.371094 -41.894531 L 10.953125 -41.953125 L 10.59375 -41.894531 L 9.574219 -41.894531 L 9.097656 -41.535156 L 9.039062 -41.175781 L 8.859375 -40.816406 L 8.679688 -40.097656 L 8.796875 -39.679688 L 8.738281 -39.320312 L 8.679688 -38.542969 L 8.617188 -38.183594 L 8.5 -37.824219 L 8.4375 -37.046875 L 8.320312 -36.628906 L 8.378906 -36.269531 L 8.199219 -35.851562 L 8.199219 -35.429688 L 8.019531 -35.070312 L 7.898438 -34.234375 L 7.660156 -33.457031 L 7.601562 -33.039062 L 7.660156 -32.679688 L 7.601562 -32.257812 L 7.480469 -31.78125 L 7.242188 -31.421875 L 7.183594 -30.164062 L 7.003906 -29.746094 L 6.941406 -28.070312 L 6.703125 -27.171875 L 6.523438 -26.335938 L 6.582031 -25.976562 L 6.464844 -25.554688 L 6.285156 -25.078125 L 5.925781 -23.28125 L 5.6875 -22.921875 L 5.6875 -22.503906 L 5.625 -22.085938 L 5.566406 -21.605469 L 5.386719 -21.1875 L 5.265625 -20.289062 L 5.027344 -19.453125 L 5.027344 -18.554688 L 4.789062 -17.296875 L 4.667969 -16.878906 L 4.488281 -15.980469 L 4.429688 -15.5625 L 4.25 -15.140625 L 4.070312 -14.363281 L 4.128906 -14.003906 L 3.890625 -13.285156 L 3.890625 -12.988281 L 3.769531 -12.210938 L 3.652344 -11.730469 L 3.652344 -11.3125 L 3.53125 -10.355469 L 3.292969 -9.875 L 3.171875 -9.097656 L 3.113281 -8.257812 L 3.050781 -7.839844 L 2.933594 -7.363281 L 2.933594 -6.941406 L 2.8125 -6.523438 L 2.8125 -5.984375 L 2.632812 -5.507812 L 2.574219 -4.546875 L 2.335938 -3.652344 L 2.214844 -2.691406 L 2.09375 -1.796875 L 1.976562 -1.257812 L 1.796875 -0.71875 L 1.976562 -0.179688 L 2.515625 -0.0585938 L 5.6875 -0.0585938 L 6.105469 0 L 7.660156 0 Z M 8.796875 0.0585938 "/></g></g></g><g fill="#000000" fill-opacity="1"><g transform="translate(162.477565, 52.267554)"><g><path d="M 11.851562 0.777344 L 12.507812 0.71875 L 12.925781 0.660156 L 13.585938 0.660156 L 14.003906 0.597656 L 14.542969 0.660156 L 14.960938 0.597656 L 15.742188 0.359375 L 16.21875 0.300781 L 17.117188 0 L 17.476562 -0.238281 L 18.195312 -0.417969 L 18.734375 -0.839844 L 19.332031 -1.195312 L 19.808594 -1.617188 L 20.109375 -1.855469 L 20.589844 -2.394531 L 20.886719 -2.632812 L 21.1875 -3.230469 L 21.546875 -3.472656 L 22.085938 -4.488281 L 22.382812 -5.328125 L 22.503906 -5.867188 L 22.625 -6.34375 L 22.863281 -7.121094 L 22.863281 -8.019531 L 22.921875 -8.378906 L 23.101562 -9.21875 L 23.101562 -10.894531 L 23.160156 -11.3125 L 23.101562 -11.730469 L 23.160156 -12.089844 L 23.222656 -12.925781 L 23.101562 -13.285156 L 22.804688 -14.304688 L 22.742188 -14.722656 L 22.683594 -15.203125 L 22.625 -15.621094 L 22.265625 -16.878906 L 21.90625 -17.65625 L 21.425781 -18.851562 L 21.367188 -19.152344 L 20.828125 -19.808594 L 20.410156 -20.828125 L 19.691406 -21.546875 L 19.390625 -22.085938 L 18.851562 -22.683594 L 18.671875 -22.980469 L 18.375 -23.160156 L 18.195312 -23.519531 L 17.597656 -24 L 17.238281 -24.238281 L 16.996094 -24.539062 L 16.757812 -25.015625 L 16.457031 -25.316406 L 16.21875 -25.675781 L 15.441406 -26.632812 L 14.78125 -27.472656 L 14.363281 -28.25 L 14.125 -28.726562 L 13.644531 -29.566406 L 13.226562 -30.703125 L 13.167969 -31.121094 L 13.167969 -31.898438 L 13.226562 -32.738281 L 13.40625 -33.335938 L 13.464844 -33.753906 L 13.707031 -34.355469 L 13.886719 -34.773438 L 14.183594 -35.191406 L 14.84375 -35.492188 L 15.5625 -35.730469 L 16.339844 -35.609375 L 16.9375 -35.132812 L 17.476562 -34.59375 L 17.65625 -34.234375 L 17.777344 -33.515625 L 17.777344 -32.140625 L 17.597656 -30.285156 L 17.476562 -29.804688 L 17.535156 -29.027344 L 18.015625 -28.609375 L 18.851562 -28.609375 L 19.691406 -28.546875 L 23.042969 -28.546875 L 24.121094 -28.609375 L 24.835938 -28.96875 L 25.078125 -30.285156 L 25.316406 -31.960938 L 25.375 -32.976562 L 25.316406 -34.175781 L 25.316406 -35.492188 L 24.957031 -36.925781 L 24.777344 -37.347656 L 24.65625 -38.003906 L 24.417969 -38.363281 L 24 -39.023438 L 23.820312 -39.320312 L 23.222656 -39.980469 L 23.042969 -40.21875 L 22.382812 -40.816406 L 21.90625 -40.996094 L 21.484375 -41.355469 L 20.769531 -41.714844 L 20.527344 -41.894531 L 20.109375 -41.953125 L 19.09375 -42.253906 L 18.195312 -42.3125 L 17.65625 -42.433594 L 17.238281 -42.433594 L 15.742188 -42.492188 L 13.886719 -42.492188 L 12.867188 -42.195312 L 11.730469 -41.953125 L 11.070312 -41.597656 L 10.113281 -41.238281 L 9.039062 -40.457031 L 8.320312 -39.859375 L 7.960938 -39.5 L 7.601562 -38.902344 L 7.421875 -38.664062 L 6.941406 -38.125 L 6.761719 -37.824219 L 6.582031 -37.40625 L 6.34375 -36.925781 L 5.984375 -36.148438 L 5.925781 -35.550781 L 5.746094 -34.953125 L 5.507812 -34.535156 L 5.445312 -33.695312 L 5.265625 -33.277344 L 5.148438 -32.078125 L 5.148438 -30.34375 L 5.085938 -29.925781 L 5.148438 -29.445312 L 5.207031 -28.667969 L 5.445312 -27.890625 L 5.566406 -27.410156 L 5.746094 -26.992188 L 6.042969 -26.574219 L 6.285156 -26.035156 L 6.644531 -25.136719 L 7.003906 -24.539062 L 7.300781 -24.121094 L 7.898438 -23.640625 L 8.5 -22.980469 L 9.039062 -22.203125 L 9.753906 -21.425781 L 10.414062 -20.648438 L 10.652344 -20.289062 L 10.953125 -19.988281 L 11.609375 -19.210938 L 11.910156 -18.734375 L 12.328125 -18.3125 L 12.507812 -18.015625 L 12.628906 -17.714844 L 12.867188 -17.355469 L 13.285156 -16.519531 L 13.765625 -15.800781 L 14.246094 -14.960938 L 14.425781 -14.066406 L 14.425781 -13.707031 L 14.664062 -12.628906 L 14.664062 -11.671875 L 14.722656 -10.832031 L 14.722656 -10.414062 L 14.664062 -9.816406 L 14.542969 -9.097656 L 14.304688 -8.378906 L 14.066406 -7.960938 L 13.765625 -7.421875 L 13.464844 -7.121094 L 12.808594 -6.941406 L 12.328125 -6.824219 L 11.789062 -6.824219 L 11.011719 -7.003906 L 10.414062 -7.601562 L 9.996094 -8.5 L 9.816406 -9.097656 L 9.695312 -10.414062 L 9.695312 -11.671875 L 9.753906 -12.089844 L 9.753906 -14.304688 L 9.277344 -15.140625 L 8.5 -15.203125 L 5.148438 -15.203125 L 4.429688 -15.261719 L 2.992188 -15.140625 L 2.15625 -14.722656 L 1.976562 -13.765625 L 1.855469 -13.347656 L 1.796875 -12.867188 L 1.675781 -11.96875 L 1.734375 -11.550781 L 1.675781 -10.535156 L 1.675781 -8.738281 L 1.796875 -7.78125 L 1.855469 -7.421875 L 2.035156 -6.582031 L 2.09375 -6.222656 L 2.515625 -5.148438 L 2.632812 -4.667969 L 3.050781 -3.652344 L 3.589844 -2.8125 L 4.191406 -2.09375 L 4.789062 -1.316406 L 5.507812 -0.839844 L 6.105469 -0.417969 L 6.761719 -0.179688 L 7.71875 0.238281 L 8.140625 0.359375 L 8.738281 0.480469 L 9.394531 0.597656 L 9.996094 0.597656 L 10.414062 0.660156 Z M 11.851562 0.777344 "/></g></g></g><g fill="#545454" fill-opacity="1"><g transform="translate(185.573434, 52.267554)"><g><path d="M 20.347656 0.121094 L 20.828125 0.0585938 L 22.023438 0.0585938 L 22.804688 0 L 23.160156 -0.0585938 L 24.058594 -0.0585938 L 24.777344 -0.238281 L 25.015625 -0.597656 L 25.136719 -1.015625 L 25.136719 -1.496094 L 25.257812 -1.914062 L 25.316406 -2.394531 L 25.496094 -2.691406 L 25.617188 -3.410156 L 25.675781 -4.070312 L 25.796875 -4.488281 L 25.914062 -5.265625 L 25.976562 -5.6875 L 26.15625 -6.523438 L 26.214844 -7.480469 L 26.273438 -8.320312 L 26.394531 -8.679688 L 26.574219 -9.335938 L 26.753906 -10.175781 L 26.8125 -10.59375 L 26.8125 -11.070312 L 26.992188 -11.910156 L 27.050781 -12.328125 L 27.171875 -12.6875 L 27.292969 -13.105469 L 27.230469 -13.464844 L 27.589844 -14.722656 L 27.53125 -15.082031 L 27.652344 -15.5 L 27.832031 -16.339844 L 27.949219 -16.996094 L 27.949219 -17.355469 L 28.1875 -18.433594 L 28.25 -18.851562 L 28.546875 -19.628906 L 28.609375 -20.050781 L 28.609375 -20.828125 L 28.667969 -21.246094 L 28.847656 -21.605469 L 28.726562 -22.023438 L 28.726562 -22.503906 L 28.96875 -22.863281 L 29.027344 -23.28125 L 29.207031 -24.121094 L 29.265625 -24.480469 L 29.328125 -25.375 L 29.625 -26.214844 L 29.6875 -27.113281 L 29.804688 -28.070312 L 29.925781 -28.847656 L 29.984375 -29.207031 L 30.285156 -29.925781 L 30.34375 -30.285156 L 30.464844 -31.0625 L 30.523438 -31.539062 L 30.644531 -31.960938 L 30.703125 -32.378906 L 30.882812 -33.15625 L 30.941406 -33.574219 L 31.0625 -34.355469 L 31.0625 -34.773438 L 31.121094 -35.550781 L 31.242188 -36.03125 L 31.363281 -36.449219 L 31.421875 -36.867188 L 31.421875 -37.347656 L 31.480469 -38.183594 L 31.71875 -38.902344 L 31.71875 -39.320312 L 31.78125 -39.679688 L 31.71875 -39.921875 L 31.960938 -40.277344 L 31.898438 -40.699219 L 31.960938 -41.058594 L 31.539062 -41.597656 L 31.121094 -41.773438 L 30.164062 -41.894531 L 28.488281 -41.894531 L 27.292969 -41.953125 L 25.136719 -41.953125 L 24.597656 -41.894531 L 24.238281 -41.835938 L 23.761719 -41.296875 L 23.699219 -40.9375 L 23.761719 -40.519531 L 23.640625 -40.097656 L 23.402344 -39.5625 L 23.339844 -39.203125 L 23.222656 -38.421875 L 23.101562 -38.066406 L 22.921875 -37.285156 L 22.921875 -36.808594 L 22.683594 -35.96875 L 22.625 -35.550781 L 22.683594 -35.070312 L 22.683594 -34.355469 L 22.445312 -33.816406 L 22.382812 -33.039062 L 22.203125 -32.257812 L 22.203125 -31.839844 L 22.085938 -31.480469 L 22.023438 -31.0625 L 21.964844 -30.582031 L 21.90625 -30.164062 L 21.84375 -29.804688 L 21.546875 -29.027344 L 21.664062 -28.667969 L 21.367188 -27.769531 L 21.304688 -27.351562 L 21.304688 -26.933594 L 21.066406 -26.394531 L 20.949219 -25.734375 L 20.886719 -25.4375 L 19.628906 -25.496094 L 19.152344 -25.4375 L 18.433594 -25.496094 L 17.953125 -25.4375 L 16.21875 -25.496094 L 15.742188 -25.496094 L 15.320312 -25.554688 L 15.441406 -26.035156 L 15.5 -26.394531 L 15.621094 -26.871094 L 15.5625 -27.230469 L 15.679688 -27.652344 L 15.859375 -28.429688 L 15.800781 -28.847656 L 15.980469 -29.207031 L 16.039062 -29.625 L 16.160156 -30.105469 L 16.277344 -30.402344 L 16.277344 -30.761719 L 16.339844 -31.480469 L 16.457031 -31.78125 L 16.519531 -32.558594 L 16.636719 -33.039062 L 16.757812 -33.457031 L 16.757812 -34.414062 L 16.9375 -34.832031 L 16.996094 -35.550781 L 17.117188 -36.390625 L 17.355469 -37.527344 L 17.417969 -38.066406 L 17.597656 -38.601562 L 17.65625 -39.441406 L 17.714844 -39.800781 L 17.894531 -40.519531 L 17.835938 -40.9375 L 17.835938 -41.296875 L 17.714844 -41.835938 L 17.117188 -41.953125 L 16.398438 -42.074219 L 15.800781 -41.894531 L 14.484375 -41.894531 L 13.644531 -41.953125 L 11.191406 -41.894531 L 9.695312 -41.894531 L 9.15625 -41.597656 L 9.097656 -40.9375 L 9.039062 -40.21875 L 8.859375 -39.441406 L 8.738281 -39.023438 L 8.796875 -38.542969 L 8.617188 -38.125 L 8.558594 -37.707031 L 8.4375 -37.285156 L 8.5 -36.449219 L 8.078125 -35.671875 L 8.078125 -34.414062 L 7.898438 -33.636719 L 7.839844 -33.277344 L 7.78125 -32.796875 L 7.542969 -32.320312 L 7.542969 -31.480469 L 7.480469 -31.183594 L 7.300781 -29.925781 L 7.183594 -29.445312 L 7.0625 -28.667969 L 6.824219 -27.410156 L 6.761719 -26.574219 L 6.703125 -26.15625 L 6.34375 -25.316406 L 6.285156 -24.480469 L 6.164062 -23.640625 L 6.105469 -23.28125 L 5.804688 -21.546875 L 5.566406 -20.707031 L 5.566406 -20.230469 L 5.386719 -19.75 L 5.207031 -19.332031 L 5.085938 -18.433594 L 5.085938 -18.015625 L 4.96875 -17.296875 L 4.789062 -16.699219 L 4.726562 -15.921875 L 4.488281 -15.082031 L 4.546875 -14.664062 L 4.429688 -14.183594 L 4.367188 -13.824219 L 4.25 -13.464844 L 3.949219 -11.371094 L 3.832031 -10.894531 L 3.652344 -10.054688 L 3.652344 -9.574219 L 3.589844 -9.15625 L 3.351562 -8.617188 L 3.113281 -8.199219 L 3.171875 -7.363281 L 2.933594 -6.523438 L 2.992188 -6.042969 L 2.871094 -5.625 L 2.515625 -4.96875 L 2.632812 -4.546875 L 2.515625 -4.191406 L 2.515625 -3.769531 L 2.394531 -3.230469 L 2.335938 -2.632812 L 2.035156 -1.855469 L 1.796875 -1.316406 L 1.796875 -0.839844 L 2.035156 -0.179688 L 3.230469 -0.0585938 L 5.148438 -0.0585938 L 5.867188 0.0585938 L 6.285156 -0.0585938 L 6.703125 -0.121094 L 7.121094 0.0585938 L 7.601562 0.0585938 L 8.5 -0.0585938 L 9.21875 -0.121094 L 9.753906 -0.179688 L 10.234375 -0.417969 L 10.535156 -1.015625 L 10.652344 -1.914062 L 10.714844 -2.335938 L 10.832031 -2.8125 L 10.953125 -3.652344 L 10.953125 -4.070312 L 11.132812 -4.90625 L 11.191406 -5.386719 L 11.550781 -7.0625 L 11.671875 -7.960938 L 11.910156 -8.738281 L 11.96875 -9.039062 L 12.269531 -9.753906 L 12.210938 -10.113281 L 12.570312 -11.429688 L 12.867188 -12.808594 L 12.988281 -13.226562 L 12.988281 -14.246094 L 13.226562 -14.664062 L 13.347656 -15.441406 L 13.585938 -16.277344 L 13.644531 -16.757812 L 13.707031 -17.058594 L 14.722656 -16.996094 L 15.621094 -16.816406 L 17.535156 -16.996094 L 18.074219 -16.878906 L 18.492188 -16.878906 L 19.03125 -16.9375 L 18.914062 -16.21875 L 18.914062 -15.800781 L 18.792969 -14.960938 L 18.671875 -14.542969 L 18.492188 -13.707031 L 18.492188 -12.988281 L 18.375 -12.390625 L 18.132812 -11.730469 L 17.777344 -9.933594 L 17.65625 -8.796875 L 17.476562 -7.898438 L 17.417969 -7.0625 L 17.296875 -6.761719 L 17.238281 -5.984375 L 17.175781 -5.566406 L 17.175781 -5.148438 L 17.117188 -4.726562 L 16.878906 -3.472656 L 16.878906 -2.632812 L 16.636719 -2.214844 L 16.519531 -1.675781 L 16.457031 -1.136719 L 16.398438 -0.660156 L 16.757812 -0.121094 L 17.175781 -0.0585938 L 17.597656 -0.0585938 L 18.253906 0 L 19.871094 0 Z M 20.347656 0.121094 "/></g></g></g><g fill="#545454" fill-opacity="1"><g transform="translate(214.958558, 52.267554)"><g><path d="M 8.796875 0.0585938 L 9.277344 0 L 10.234375 -0.0585938 L 11.492188 -0.0585938 L 11.851562 -0.121094 L 12.628906 -0.0585938 L 13.585938 -0.121094 L 19.273438 -0.121094 L 19.453125 -0.777344 L 19.570312 -1.316406 L 19.628906 -2.335938 L 19.808594 -3.230469 L 19.871094 -3.652344 L 19.988281 -4.011719 L 20.109375 -4.429688 L 20.109375 -5.207031 L 20.347656 -6.523438 L 20.410156 -7.003906 L 20.527344 -7.660156 L 20.589844 -7.898438 L 20.648438 -8.378906 L 20.230469 -8.558594 L 18.554688 -8.5 L 17.238281 -8.558594 L 16.398438 -8.617188 L 12.867188 -8.617188 L 12.03125 -8.738281 L 11.789062 -8.976562 L 11.789062 -9.457031 L 12.03125 -11.011719 L 12.210938 -12.089844 L 12.328125 -12.507812 L 12.390625 -13.105469 L 12.507812 -13.644531 L 12.6875 -14.246094 L 12.925781 -15.921875 L 13.105469 -16.699219 L 13.347656 -17.355469 L 13.886719 -17.355469 L 14.664062 -17.417969 L 15.320312 -17.417969 L 16.339844 -17.355469 L 17.835938 -17.417969 L 18.375 -17.417969 L 19.273438 -17.476562 L 19.871094 -17.476562 L 19.988281 -17.597656 L 20.109375 -18.433594 L 20.289062 -19.390625 L 20.410156 -20.230469 L 20.589844 -20.707031 L 20.589844 -21.128906 L 20.769531 -22.023438 L 20.886719 -22.445312 L 21.066406 -23.28125 L 21.1875 -23.941406 L 21.1875 -24.417969 L 21.304688 -25.136719 L 20.949219 -25.617188 L 20.46875 -25.734375 L 18.914062 -25.734375 L 17.777344 -25.617188 L 15.679688 -25.675781 L 14.601562 -25.675781 L 14.722656 -26.753906 L 14.902344 -27.351562 L 14.84375 -27.832031 L 14.960938 -28.25 L 15.140625 -29.085938 L 15.261719 -29.925781 L 15.441406 -31.0625 L 15.441406 -31.539062 L 15.621094 -31.898438 L 15.621094 -32.738281 L 15.679688 -33.15625 L 15.859375 -33.875 L 17.296875 -33.933594 L 21.1875 -33.933594 L 21.90625 -33.996094 L 24.417969 -33.996094 L 25.015625 -34.054688 L 25.195312 -34.832031 L 25.257812 -35.191406 L 25.496094 -36.03125 L 25.496094 -36.507812 L 25.675781 -37.40625 L 25.734375 -37.765625 L 25.796875 -38.183594 L 25.976562 -38.601562 L 25.976562 -38.960938 L 26.09375 -40.457031 L 26.09375 -40.816406 L 26.273438 -41.476562 L 25.976562 -41.894531 L 25.4375 -41.953125 L 24.835938 -42.015625 L 24.300781 -41.953125 L 22.980469 -41.953125 L 21.246094 -41.894531 L 20.769531 -41.953125 L 19.390625 -42.015625 L 14.902344 -41.953125 L 13.585938 -41.894531 L 12.988281 -41.894531 L 12.507812 -41.953125 L 12.089844 -41.953125 L 11.371094 -41.894531 L 10.953125 -41.953125 L 10.59375 -41.894531 L 9.574219 -41.894531 L 9.097656 -41.535156 L 9.039062 -41.175781 L 8.859375 -40.816406 L 8.679688 -40.097656 L 8.796875 -39.679688 L 8.738281 -39.320312 L 8.679688 -38.542969 L 8.617188 -38.183594 L 8.5 -37.824219 L 8.4375 -37.046875 L 8.320312 -36.628906 L 8.378906 -36.269531 L 8.199219 -35.851562 L 8.199219 -35.429688 L 8.019531 -35.070312 L 7.898438 -34.234375 L 7.660156 -33.457031 L 7.601562 -33.039062 L 7.660156 -32.679688 L 7.601562 -32.257812 L 7.480469 -31.78125 L 7.242188 -31.421875 L 7.183594 -30.164062 L 7.003906 -29.746094 L 6.941406 -28.070312 L 6.703125 -27.171875 L 6.523438 -26.335938 L 6.582031 -25.976562 L 6.464844 -25.554688 L 6.285156 -25.078125 L 5.925781 -23.28125 L 5.6875 -22.921875 L 5.6875 -22.503906 L 5.625 -22.085938 L 5.566406 -21.605469 L 5.386719 -21.1875 L 5.265625 -20.289062 L 5.027344 -19.453125 L 5.027344 -18.554688 L 4.789062 -17.296875 L 4.667969 -16.878906 L 4.488281 -15.980469 L 4.429688 -15.5625 L 4.25 -15.140625 L 4.070312 -14.363281 L 4.128906 -14.003906 L 3.890625 -13.285156 L 3.890625 -12.988281 L 3.769531 -12.210938 L 3.652344 -11.730469 L 3.652344 -11.3125 L 3.53125 -10.355469 L 3.292969 -9.875 L 3.171875 -9.097656 L 3.113281 -8.257812 L 3.050781 -7.839844 L 2.933594 -7.363281 L 2.933594 -6.941406 L 2.8125 -6.523438 L 2.8125 -5.984375 L 2.632812 -5.507812 L 2.574219 -4.546875 L 2.335938 -3.652344 L 2.214844 -2.691406 L 2.09375 -1.796875 L 1.976562 -1.257812 L 1.796875 -0.71875 L 1.976562 -0.179688 L 2.515625 -0.0585938 L 5.6875 -0.0585938 L 6.105469 0 L 7.660156 0 Z M 8.796875 0.0585938 "/></g></g></g><g fill="#545454" fill-opacity="1"><g transform="translate(236.802884, 52.267554)"><g><path d="M 7.898438 0.121094 L 8.378906 0.0585938 L 9.277344 0 L 9.816406 -0.0585938 L 10.414062 0 L 10.59375 -0.539062 L 10.773438 -0.957031 L 10.832031 -1.675781 L 10.894531 -2.09375 L 10.894531 -2.453125 L 10.953125 -2.871094 L 11.011719 -3.652344 L 11.011719 -4.011719 L 11.132812 -4.429688 L 11.070312 -4.789062 L 11.25 -5.625 L 11.25 -6.105469 L 11.371094 -6.464844 L 11.429688 -6.941406 L 11.671875 -8.199219 L 11.789062 -8.679688 L 11.789062 -9.933594 L 12.03125 -10.414062 L 12.148438 -11.25 L 12.148438 -11.609375 L 12.269531 -12.449219 L 12.570312 -13.226562 L 12.570312 -14.246094 L 12.75 -15.5 L 12.808594 -15.980469 L 12.988281 -16.816406 L 13.105469 -17.175781 L 13.167969 -17.417969 L 13.585938 -17.355469 L 13.824219 -17.117188 L 14.066406 -16.636719 L 14.183594 -16.160156 L 14.425781 -15.679688 L 14.542969 -15.082031 L 14.722656 -14.246094 L 14.84375 -13.945312 L 14.902344 -13.105469 L 15.140625 -12.328125 L 15.261719 -11.550781 L 15.382812 -11.132812 L 15.621094 -10.414062 L 15.679688 -9.996094 L 16.039062 -8.917969 L 16.039062 -8.199219 L 16.277344 -7.601562 L 16.457031 -6.941406 L 16.519531 -6.523438 L 16.699219 -6.164062 L 16.699219 -5.746094 L 16.878906 -5.328125 L 16.996094 -4.546875 L 17.117188 -4.367188 L 17.296875 -3.890625 L 17.296875 -3.410156 L 17.65625 -2.515625 L 17.835938 -1.855469 L 17.953125 -1.554688 L 18.132812 -0.839844 L 18.253906 -0.539062 L 18.792969 0 L 19.152344 0.0585938 L 19.691406 0 L 20.167969 0 L 20.828125 -0.0585938 L 21.605469 -0.0585938 L 23.160156 -0.238281 L 24.417969 -0.417969 L 25.195312 -0.417969 L 25.855469 -0.539062 L 26.15625 -0.597656 L 26.335938 -1.375 L 25.914062 -2.515625 L 25.796875 -3.050781 L 25.734375 -3.472656 L 25.675781 -4.191406 L 25.257812 -5.207031 L 25.136719 -6.042969 L 24.480469 -8.199219 L 24.359375 -8.976562 L 24.058594 -9.875 L 24.058594 -10.234375 L 23.820312 -11.011719 L 23.699219 -11.492188 L 23.519531 -11.910156 L 23.402344 -12.75 L 23.28125 -13.105469 L 23.101562 -13.886719 L 22.921875 -14.246094 L 22.804688 -15.023438 L 22.742188 -15.5 L 22.503906 -15.859375 L 22.382812 -16.636719 L 22.382812 -17.175781 L 22.085938 -18.074219 L 21.90625 -18.554688 L 21.90625 -19.09375 L 22.324219 -19.152344 L 23.160156 -19.570312 L 24.359375 -20.347656 L 25.195312 -21.246094 L 25.496094 -21.546875 L 26.15625 -22.324219 L 26.335938 -22.683594 L 26.8125 -23.460938 L 27.050781 -24 L 27.230469 -24.417969 L 27.769531 -25.195312 L 28.070312 -25.914062 L 28.25 -26.335938 L 28.367188 -26.691406 L 28.488281 -27.113281 L 28.726562 -27.832031 L 28.90625 -28.429688 L 29.027344 -29.386719 L 29.207031 -30.34375 L 29.207031 -30.761719 L 29.148438 -31.660156 L 29.207031 -32.078125 L 29.386719 -32.917969 L 29.386719 -33.394531 L 29.207031 -34.535156 L 29.207031 -34.953125 L 29.085938 -36.089844 L 28.90625 -37.046875 L 28.488281 -37.886719 L 28.070312 -38.601562 L 27.832031 -38.902344 L 27.53125 -39.261719 L 27.292969 -39.5 L 26.574219 -39.921875 L 26.273438 -40.097656 L 25.914062 -40.277344 L 25.375 -40.636719 L 24.957031 -40.757812 L 24.417969 -40.996094 L 23.761719 -41.296875 L 23.28125 -41.417969 L 22.324219 -41.417969 L 21.664062 -41.535156 L 20.769531 -41.597656 L 19.988281 -41.714844 L 19.453125 -41.714844 L 18.554688 -41.835938 L 18.074219 -41.953125 L 17.476562 -41.894531 L 17.058594 -41.835938 L 14.484375 -41.835938 L 10.894531 -41.894531 L 10.054688 -41.894531 L 9.457031 -41.773438 L 9.039062 -41.296875 L 8.796875 -40.996094 L 8.859375 -40.339844 L 8.617188 -39.859375 L 8.617188 -39.382812 L 8.558594 -38.960938 L 8.5 -38.484375 L 8.257812 -36.808594 L 8.078125 -35.851562 L 7.898438 -35.132812 L 7.78125 -34.714844 L 7.78125 -34.355469 L 7.71875 -33.574219 L 7.71875 -33.214844 L 7.660156 -32.859375 L 7.480469 -32.019531 L 7.300781 -31.0625 L 7.121094 -30.222656 L 7.0625 -29.863281 L 7.003906 -29.027344 L 6.761719 -28.308594 L 6.703125 -27.949219 L 6.703125 -27.53125 L 6.644531 -27.171875 L 6.523438 -26.394531 L 6.464844 -25.976562 L 6.402344 -25.617188 L 6.402344 -25.195312 L 6.105469 -23.941406 L 6.105469 -23.460938 L 5.984375 -22.625 L 5.867188 -21.84375 L 5.804688 -21.484375 L 5.6875 -20.828125 L 5.566406 -20.410156 L 5.566406 -20.050781 L 5.386719 -19.691406 L 5.265625 -19.273438 L 5.207031 -18.554688 L 5.265625 -18.195312 L 5.148438 -17.835938 L 4.847656 -17.417969 L 4.847656 -16.878906 L 4.789062 -16.398438 L 4.726562 -15.980469 L 4.488281 -15.140625 L 4.488281 -14.664062 L 4.429688 -13.765625 L 4.308594 -13.167969 L 4.308594 -12.628906 L 4.011719 -11.550781 L 4.011719 -10.652344 L 3.769531 -10.175781 L 3.832031 -9.695312 L 3.769531 -9.277344 L 3.652344 -8.796875 L 3.589844 -7.960938 L 3.410156 -7.480469 L 3.472656 -7.0625 L 3.292969 -6.582031 L 3.292969 -6.164062 L 3.113281 -5.328125 L 3.050781 -4.90625 L 3.050781 -4.546875 L 2.871094 -4.128906 L 2.871094 -3.710938 L 2.753906 -3.351562 L 2.753906 -2.933594 L 2.691406 -2.273438 L 2.632812 -1.675781 L 2.453125 -1.078125 L 2.453125 -0.539062 L 2.574219 -0.179688 L 3.113281 -0.0585938 L 4.96875 0.0585938 L 5.746094 0.0585938 Z M 15.679688 -24.539062 L 14.664062 -24.65625 L 14.722656 -25.136719 L 14.664062 -25.554688 L 14.722656 -25.976562 L 14.902344 -26.933594 L 15.023438 -27.472656 L 14.960938 -28.011719 L 15.140625 -28.546875 L 15.261719 -29.445312 L 15.261719 -29.863281 L 15.441406 -30.824219 L 15.5625 -31.300781 L 15.621094 -32.078125 L 15.679688 -32.976562 L 15.800781 -33.933594 L 15.980469 -34.355469 L 16.160156 -35.011719 L 16.699219 -35.191406 L 18.132812 -35.132812 L 19.453125 -34.953125 L 19.988281 -34.652344 L 20.410156 -34.234375 L 20.707031 -33.695312 L 20.886719 -32.4375 L 20.949219 -31.121094 L 20.886719 -30.164062 L 20.707031 -29.6875 L 20.707031 -29.207031 L 20.289062 -28.367188 L 20.230469 -28.011719 L 20.109375 -27.53125 L 19.808594 -26.753906 L 19.390625 -26.394531 L 19.152344 -26.035156 L 18.734375 -25.554688 L 18.3125 -25.316406 L 17.714844 -24.957031 L 17.355469 -24.71875 L 16.636719 -24.539062 Z M 15.679688 -24.539062 "/></g></g></g><g fill="#545454" fill-opacity="1"><g transform="translate(264.213032, 52.267554)"><g><path d="M 8.796875 0.0585938 L 9.277344 0 L 10.234375 -0.0585938 L 11.492188 -0.0585938 L 11.851562 -0.121094 L 12.628906 -0.0585938 L 13.585938 -0.121094 L 19.273438 -0.121094 L 19.453125 -0.777344 L 19.570312 -1.316406 L 19.628906 -2.335938 L 19.808594 -3.230469 L 19.871094 -3.652344 L 19.988281 -4.011719 L 20.109375 -4.429688 L 20.109375 -5.207031 L 20.347656 -6.523438 L 20.410156 -7.003906 L 20.527344 -7.660156 L 20.589844 -7.898438 L 20.648438 -8.378906 L 20.230469 -8.558594 L 18.554688 -8.5 L 17.238281 -8.558594 L 16.398438 -8.617188 L 12.867188 -8.617188 L 12.03125 -8.738281 L 11.789062 -8.976562 L 11.789062 -9.457031 L 12.03125 -11.011719 L 12.210938 -12.089844 L 12.328125 -12.507812 L 12.390625 -13.105469 L 12.507812 -13.644531 L 12.6875 -14.246094 L 12.925781 -15.921875 L 13.105469 -16.699219 L 13.347656 -17.355469 L 13.886719 -17.355469 L 14.664062 -17.417969 L 15.320312 -17.417969 L 16.339844 -17.355469 L 17.835938 -17.417969 L 18.375 -17.417969 L 19.273438 -17.476562 L 19.871094 -17.476562 L 19.988281 -17.597656 L 20.109375 -18.433594 L 20.289062 -19.390625 L 20.410156 -20.230469 L 20.589844 -20.707031 L 20.589844 -21.128906 L 20.769531 -22.023438 L 20.886719 -22.445312 L 21.066406 -23.28125 L 21.1875 -23.941406 L 21.1875 -24.417969 L 21.304688 -25.136719 L 20.949219 -25.617188 L 20.46875 -25.734375 L 18.914062 -25.734375 L 17.777344 -25.617188 L 15.679688 -25.675781 L 14.601562 -25.675781 L 14.722656 -26.753906 L 14.902344 -27.351562 L 14.84375 -27.832031 L 14.960938 -28.25 L 15.140625 -29.085938 L 15.261719 -29.925781 L 15.441406 -31.0625 L 15.441406 -31.539062 L 15.621094 -31.898438 L 15.621094 -32.738281 L 15.679688 -33.15625 L 15.859375 -33.875 L 17.296875 -33.933594 L 21.1875 -33.933594 L 21.90625 -33.996094 L 24.417969 -33.996094 L 25.015625 -34.054688 L 25.195312 -34.832031 L 25.257812 -35.191406 L 25.496094 -36.03125 L 25.496094 -36.507812 L 25.675781 -37.40625 L 25.734375 -37.765625 L 25.796875 -38.183594 L 25.976562 -38.601562 L 25.976562 -38.960938 L 26.09375 -40.457031 L 26.09375 -40.816406 L 26.273438 -41.476562 L 25.976562 -41.894531 L 25.4375 -41.953125 L 24.835938 -42.015625 L 24.300781 -41.953125 L 22.980469 -41.953125 L 21.246094 -41.894531 L 20.769531 -41.953125 L 19.390625 -42.015625 L 14.902344 -41.953125 L 13.585938 -41.894531 L 12.988281 -41.894531 L 12.507812 -41.953125 L 12.089844 -41.953125 L 11.371094 -41.894531 L 10.953125 -41.953125 L 10.59375 -41.894531 L 9.574219 -41.894531 L 9.097656 -41.535156 L 9.039062 -41.175781 L 8.859375 -40.816406 L 8.679688 -40.097656 L 8.796875 -39.679688 L 8.738281 -39.320312 L 8.679688 -38.542969 L 8.617188 -38.183594 L 8.5 -37.824219 L 8.4375 -37.046875 L 8.320312 -36.628906 L 8.378906 -36.269531 L 8.199219 -35.851562 L 8.199219 -35.429688 L 8.019531 -35.070312 L 7.898438 -34.234375 L 7.660156 -33.457031 L 7.601562 -33.039062 L 7.660156 -32.679688 L 7.601562 -32.257812 L 7.480469 -31.78125 L 7.242188 -31.421875 L 7.183594 -30.164062 L 7.003906 -29.746094 L 6.941406 -28.070312 L 6.703125 -27.171875 L 6.523438 -26.335938 L 6.582031 -25.976562 L 6.464844 -25.554688 L 6.285156 -25.078125 L 5.925781 -23.28125 L 5.6875 -22.921875 L 5.6875 -22.503906 L 5.625 -22.085938 L 5.566406 -21.605469 L 5.386719 -21.1875 L 5.265625 -20.289062 L 5.027344 -19.453125 L 5.027344 -18.554688 L 4.789062 -17.296875 L 4.667969 -16.878906 L 4.488281 -15.980469 L 4.429688 -15.5625 L 4.25 -15.140625 L 4.070312 -14.363281 L 4.128906 -14.003906 L 3.890625 -13.285156 L 3.890625 -12.988281 L 3.769531 -12.210938 L 3.652344 -11.730469 L 3.652344 -11.3125 L 3.53125 -10.355469 L 3.292969 -9.875 L 3.171875 -9.097656 L 3.113281 -8.257812 L 3.050781 -7.839844 L 2.933594 -7.363281 L 2.933594 -6.941406 L 2.8125 -6.523438 L 2.8125 -5.984375 L 2.632812 -5.507812 L 2.574219 -4.546875 L 2.335938 -3.652344 L 2.214844 -2.691406 L 2.09375 -1.796875 L 1.976562 -1.257812 L 1.796875 -0.71875 L 1.976562 -0.179688 L 2.515625 -0.0585938 L 5.6875 -0.0585938 L 6.105469 0 L 7.660156 0 Z M 8.796875 0.0585938 "/></g></g></g><g clip-path="url(#31a6175025)"><path fill="#000000" d="M 62.582031 27.164062 L 59.222656 19.648438 L 60.378906 26.691406 C 60.515625 27.570312 60.441406 28.429688 60.164062 29.273438 C 59.882812 30.117188 59.425781 30.851562 58.792969 31.476562 L 37.554688 52.636719 L 45.5625 56.140625 C 45.898438 56.3125 46.253906 56.398438 46.632812 56.394531 L 46.636719 56.394531 C 47.132812 56.390625 47.589844 56.253906 48.011719 55.996094 C 48.433594 55.734375 48.757812 55.382812 48.984375 54.945312 L 62.511719 29.609375 C 62.714844 29.230469 62.824219 28.824219 62.839844 28.394531 C 62.851562 27.964844 62.765625 27.554688 62.582031 27.164062 Z M 62.582031 27.164062 " fill-opacity="1" fill-rule="nonzero"/></g><path fill="#000000" d="M 28.167969 25.957031 C 28.699219 25.847656 29.152344 25.597656 29.527344 25.207031 C 29.917969 24.835938 30.167969 24.382812 30.277344 23.855469 C 30.339844 23.589844 30.292969 23.34375 30.132812 23.125 C 29.988281 23.003906 29.820312 22.949219 29.632812 22.960938 C 29.554688 22.960938 29.476562 22.96875 29.398438 22.980469 C 28.875 23.097656 28.421875 23.347656 28.039062 23.730469 C 27.65625 24.109375 27.40625 24.558594 27.285156 25.082031 C 27.167969 25.359375 27.21875 25.605469 27.429688 25.816406 C 27.640625 26.027344 27.886719 26.078125 28.164062 25.960938 Z M 28.167969 25.957031 " fill-opacity="1" fill-rule="nonzero"/><path fill="#000000" d="M 30.09375 37.960938 C 29.460938 38.011719 28.929688 38.269531 28.496094 38.730469 C 27.734375 39.488281 27.546875 40.472656 27.886719 40.816406 C 28.109375 40.976562 28.355469 41.023438 28.621094 40.960938 C 29.152344 40.851562 29.605469 40.601562 29.980469 40.210938 C 30.375 39.835938 30.625 39.386719 30.734375 38.855469 C 30.796875 38.589844 30.746094 38.347656 30.589844 38.125 C 30.445312 38.003906 30.28125 37.949219 30.09375 37.960938 Z M 30.09375 37.960938 " fill-opacity="1" fill-rule="nonzero"/><path fill="#000000" d="M 49.039062 30.023438 L 30.96875 12.023438 C 30.851562 11.910156 30.714844 11.851562 30.550781 11.851562 C 30.390625 11.851562 30.25 11.910156 30.136719 12.023438 L 8.984375 33.09375 C 8.871094 33.207031 8.8125 33.34375 8.8125 33.503906 C 8.8125 33.667969 8.871094 33.804688 8.984375 33.917969 L 27.058594 51.921875 C 27.171875 52.035156 27.308594 52.09375 27.472656 52.09375 C 27.632812 52.09375 27.773438 52.035156 27.886719 51.921875 L 49.039062 30.851562 C 49.152344 30.738281 49.210938 30.601562 49.210938 30.4375 C 49.210938 30.277344 49.152344 30.136719 49.039062 30.023438 Z M 24.96875 24.710938 C 25.066406 24.210938 25.234375 23.734375 25.476562 23.289062 C 25.714844 22.839844 26.015625 22.433594 26.378906 22.074219 C 26.738281 21.714844 27.144531 21.414062 27.597656 21.175781 C 28.046875 20.9375 28.523438 20.765625 29.023438 20.667969 C 29.269531 20.613281 29.519531 20.589844 29.773438 20.597656 C 30.023438 20.605469 30.269531 20.644531 30.511719 20.714844 C 30.753906 20.785156 30.984375 20.882812 31.203125 21.011719 C 31.417969 21.136719 31.617188 21.292969 31.796875 21.46875 C 31.972656 21.648438 32.125 21.84375 32.253906 22.058594 C 32.382812 22.277344 32.480469 22.503906 32.550781 22.746094 C 32.621094 22.988281 32.660156 23.234375 32.667969 23.484375 C 32.675781 23.734375 32.652344 23.984375 32.597656 24.226562 C 32.410156 25.253906 31.941406 26.132812 31.1875 26.863281 C 30.457031 27.609375 29.574219 28.078125 28.542969 28.265625 C 28.34375 28.296875 28.144531 28.316406 27.941406 28.316406 C 27.101562 28.332031 26.378906 28.050781 25.773438 27.464844 C 25.425781 27.097656 25.179688 26.671875 25.035156 26.183594 C 24.894531 25.699219 24.871094 25.207031 24.96875 24.710938 Z M 33.058594 39.230469 C 32.867188 40.257812 32.398438 41.136719 31.648438 41.863281 C 30.914062 42.613281 30.035156 43.082031 29.003906 43.269531 C 28.804688 43.300781 28.601562 43.316406 28.402344 43.316406 C 27.558594 43.335938 26.835938 43.050781 26.234375 42.46875 C 24.886719 41.125 25.152344 38.753906 26.839844 37.074219 C 28.527344 35.390625 30.910156 35.125 32.257812 36.46875 C 32.609375 36.835938 32.851562 37.265625 32.996094 37.753906 C 33.136719 38.242188 33.15625 38.734375 33.058594 39.230469 Z M 37.828125 33.183594 C 37.789062 33.472656 37.65625 33.710938 37.4375 33.902344 C 37.214844 34.097656 36.957031 34.191406 36.664062 34.191406 C 36.609375 34.191406 36.558594 34.1875 36.503906 34.179688 L 21.199219 32.078125 C 21.046875 32.054688 20.902344 32.007812 20.765625 31.929688 C 20.632812 31.851562 20.519531 31.75 20.425781 31.625 C 20.332031 31.5 20.265625 31.363281 20.222656 31.214844 C 20.183594 31.0625 20.175781 30.910156 20.195312 30.757812 C 20.21875 30.605469 20.269531 30.460938 20.347656 30.328125 C 20.425781 30.191406 20.527344 30.078125 20.652344 29.984375 C 20.777344 29.890625 20.914062 29.824219 21.0625 29.785156 C 21.214844 29.746094 21.367188 29.738281 21.523438 29.757812 L 36.824219 31.863281 C 36.976562 31.882812 37.121094 31.933594 37.257812 32.011719 C 37.390625 32.089844 37.507812 32.191406 37.601562 32.316406 C 37.695312 32.4375 37.761719 32.574219 37.800781 32.726562 C 37.839844 32.875 37.847656 33.027344 37.828125 33.183594 Z M 37.828125 33.183594 " fill-opacity="1" fill-rule="nonzero"/><g clip-path="url(#0ca8e4e15b)"><path fill="#000000" d="M 55 8.394531 C 54.921875 7.914062 54.726562 7.480469 54.417969 7.101562 C 53.453125 7.449219 52.617188 7.992188 51.90625 8.726562 C 50.96875 9.570312 50.378906 10.609375 50.132812 11.84375 C 50.324219 12.105469 50.480469 12.386719 50.605469 12.683594 C 50.730469 12.984375 50.816406 13.292969 50.867188 13.613281 C 50.917969 13.933594 50.933594 14.253906 50.90625 14.574219 C 50.878906 14.898438 50.816406 15.214844 50.71875 15.519531 C 50.617188 15.828125 50.480469 16.121094 50.3125 16.394531 C 50.144531 16.671875 49.941406 16.921875 49.714844 17.152344 C 49.484375 17.378906 49.230469 17.578125 48.953125 17.75 C 48.675781 17.917969 48.382812 18.050781 48.074219 18.152344 C 47.765625 18.25 47.449219 18.3125 47.125 18.339844 C 46.800781 18.363281 46.480469 18.351562 46.160156 18.300781 C 45.839844 18.25 45.527344 18.160156 45.230469 18.039062 C 44.929688 17.914062 44.648438 17.757812 44.386719 17.566406 C 44.121094 17.375 43.886719 17.15625 43.675781 16.910156 C 43.464844 16.664062 43.285156 16.398438 43.140625 16.109375 C 42.992188 15.820312 42.882812 15.519531 42.804688 15.203125 C 42.730469 14.890625 42.691406 14.570312 42.695312 14.246094 C 42.695312 14.179688 42.703125 14.113281 42.703125 14.042969 C 41.992188 11.191406 42.875 7.816406 45.164062 4.863281 L 33.933594 3.039062 C 33.773438 3.011719 33.613281 3 33.449219 3 C 32.558594 3.007812 31.796875 3.328125 31.167969 3.960938 L 3.242188 31.773438 C 2.640625 32.363281 2.320312 33.078125 2.28125 33.917969 C 2.234375 34.753906 2.507812 35.464844 3.097656 36.054688 L 24.90625 57.78125 C 25.464844 58.332031 26.136719 58.601562 26.921875 58.59375 C 27.816406 58.585938 28.578125 58.265625 29.207031 57.636719 L 57.128906 29.820312 C 57.496094 29.464844 57.761719 29.042969 57.925781 28.558594 C 58.089844 28.074219 58.132812 27.578125 58.058594 27.070312 Z M 50.699219 32.507812 L 29.550781 53.574219 C 29.273438 53.847656 28.957031 54.058594 28.597656 54.207031 C 28.238281 54.355469 27.863281 54.429688 27.472656 54.429688 C 27.082031 54.429688 26.707031 54.355469 26.347656 54.207031 C 25.988281 54.058594 25.671875 53.847656 25.394531 53.574219 L 7.324219 35.570312 C 7.050781 35.296875 6.835938 34.980469 6.6875 34.621094 C 6.539062 34.265625 6.464844 33.890625 6.464844 33.503906 C 6.464844 33.117188 6.539062 32.742188 6.6875 32.382812 C 6.835938 32.027344 7.050781 31.710938 7.324219 31.433594 L 28.476562 10.367188 C 28.75 10.09375 29.066406 9.882812 29.425781 9.734375 C 29.789062 9.585938 30.160156 9.511719 30.550781 9.511719 C 30.941406 9.511719 31.316406 9.585938 31.675781 9.734375 C 32.035156 9.882812 32.351562 10.09375 32.625 10.367188 L 50.699219 28.367188 C 50.976562 28.640625 51.1875 28.960938 51.335938 29.316406 C 51.484375 29.675781 51.558594 30.050781 51.558594 30.4375 C 51.558594 30.824219 51.484375 31.199219 51.335938 31.558594 C 51.1875 31.914062 50.976562 32.230469 50.699219 32.507812 Z M 50.699219 32.507812 " fill-opacity="1" fill-rule="nonzero"/></g><g clip-path="url(#1d9f22a3ad)"><path fill="#000000" d="M 58.972656 3.097656 C 58.476562 2.621094 57.910156 2.261719 57.269531 2.011719 C 56.625 1.765625 55.960938 1.652344 55.273438 1.671875 C 54.726562 1.675781 54.183594 1.738281 53.648438 1.855469 C 51.519531 2.378906 49.691406 3.429688 48.164062 5 C 44.933594 8.21875 43.898438 12.472656 45.707031 15.109375 C 45.8125 15.277344 45.949219 15.417969 46.113281 15.53125 C 46.277344 15.644531 46.457031 15.722656 46.652344 15.761719 C 46.847656 15.804688 47.042969 15.804688 47.238281 15.765625 C 47.433594 15.726562 47.617188 15.652344 47.78125 15.539062 C 47.945312 15.425781 48.082031 15.285156 48.191406 15.117188 C 48.296875 14.949219 48.367188 14.769531 48.398438 14.570312 C 48.433594 14.375 48.425781 14.179688 48.378906 13.988281 C 48.332031 13.792969 48.25 13.617188 48.128906 13.457031 C 47.289062 12.234375 47.859375 9.445312 50.242188 7.070312 C 51.359375 5.902344 52.707031 5.117188 54.277344 4.714844 C 54.601562 4.640625 54.933594 4.605469 55.265625 4.601562 C 55.886719 4.5625 56.429688 4.75 56.890625 5.167969 C 57.625 5.902344 57.492188 7.113281 57.347656 7.773438 C 57.296875 8.007812 57.230469 8.234375 57.152344 8.457031 L 57.933594 12.917969 L 58.351562 12.355469 C 59.25 11.164062 59.871094 9.847656 60.214844 8.398438 C 60.691406 6.253906 60.246094 4.371094 58.972656 3.097656 Z M 58.972656 3.097656 " fill-opacity="1" fill-rule="nonzero"/></g></svg>